# Blender 4.0.2
# www.blender.org
mtllib evencare3_furniture.mtl
o Cube
v 7.250000 2.000000 -8.450001 0.5019 0.6589 1.0000
v 8.500000 0.000000 -7.200000 0.3804 0.3647 0.8862
v 6.000000 0.000000 -7.200000 0.3804 0.3647 0.8862
v 8.500000 0.000000 -9.700001 0.3804 0.3647 0.8862
v 8.500000 0.000000 -7.200000 0.3804 0.3647 0.8862
v 7.250000 2.000000 -8.450001 0.3804 0.3647 0.8862
v 7.250000 2.000000 -8.450001 0.5019 0.6589 1.0000
v 8.500000 0.000000 -7.200000 0.3804 0.3647 0.8862
v 6.000000 0.000000 -7.200000 0.3804 0.3647 0.8862
v 8.500000 0.000000 -9.700001 0.3804 0.3647 0.8862
v 8.500000 0.000000 -7.200000 0.3804 0.3647 0.8862
v 7.250000 2.000000 -8.450001 0.3804 0.3647 0.8862
v 14.750000 2.000000 -8.450000 0.5019 0.6589 1.0000
v 13.500000 0.000000 -7.200000 0.3804 0.3647 0.8862
v 16.000000 0.000000 -7.200000 0.3804 0.3647 0.8862
v 13.500000 0.000000 -9.700000 0.3804 0.3647 0.8862
v 13.500000 0.000000 -7.200000 0.3804 0.3647 0.8862
v 14.750000 2.000000 -8.450000 0.3804 0.3647 0.8862
v 7.250000 2.140002 -8.018000 0.3490 0.5569 1.0000
v 7.477114 1.827403 -8.256801 0.3137 0.3137 0.6510
v 7.617481 2.259401 -8.256801 0.3490 0.5569 1.0000
v 7.250000 2.526394 -8.256803 0.5019 0.6589 1.0000
v 6.882520 2.259401 -8.256801 0.5019 0.6589 1.0000
v 7.022887 1.827403 -8.256801 0.3137 0.3137 0.6510
v 7.465999 2.210182 -8.082517 0.3490 0.5569 1.0000
v 7.383493 1.956262 -8.082518 0.3490 0.5569 1.0000
v 7.599494 2.026442 -8.222881 0.3490 0.5569 1.0000
v 7.250000 1.772522 -8.222882 0.3137 0.3137 0.6510
v 7.116508 1.956262 -8.082518 0.3490 0.5569 1.0000
v 7.250000 2.367117 -8.082519 0.3490 0.5569 1.0000
v 7.465999 2.437299 -8.222881 0.5019 0.6589 1.0000
v 7.034003 2.210182 -8.082517 0.3490 0.5569 1.0000
v 7.034002 2.437299 -8.222881 0.5019 0.6589 1.0000
v 6.900507 2.026442 -8.222881 0.3490 0.5569 1.0000
v 7.383494 1.729145 -8.450000 0.3137 0.3137 0.6510
v 7.116507 1.729145 -8.450000 0.3137 0.3137 0.6510
v 7.682001 2.140002 -8.450000 0.3490 0.5569 1.0000
v 7.599495 1.886078 -8.450000 0.3137 0.3137 0.6510
v 7.383494 2.550859 -8.450000 0.5019 0.6589 1.0000
v 7.599495 2.393925 -8.450000 0.5019 0.6589 1.0000
v 6.900506 2.393925 -8.450000 0.5019 0.6589 1.0000
v 7.116507 2.550859 -8.450000 0.5019 0.6589 1.0000
v 6.900506 1.886078 -8.450000 0.3137 0.3137 0.6510
v 6.818000 2.140002 -8.450000 0.3490 0.5569 1.0000
v 14.750000 2.140002 -8.017999 0.3490 0.5569 1.0000
v 14.977114 1.827403 -8.256800 0.3137 0.3137 0.6510
v 15.117480 2.259401 -8.256800 0.3490 0.5569 1.0000
v 14.750000 2.526394 -8.256802 0.5019 0.6589 1.0000
v 14.382520 2.259401 -8.256800 0.5019 0.6589 1.0000
v 14.522886 1.827403 -8.256800 0.3137 0.3137 0.6510
v 14.965998 2.210182 -8.082516 0.3490 0.5569 1.0000
v 14.883493 1.956262 -8.082517 0.3490 0.5569 1.0000
v 15.099493 2.026442 -8.222880 0.3490 0.5569 1.0000
v 14.750000 1.772522 -8.222881 0.3137 0.3137 0.6510
v 14.616507 1.956262 -8.082517 0.3490 0.5569 1.0000
v 14.750000 2.367117 -8.082518 0.3490 0.5569 1.0000
v 14.965999 2.437299 -8.222880 0.5019 0.6589 1.0000
v 14.534002 2.210182 -8.082516 0.3490 0.5569 1.0000
v 14.534001 2.437299 -8.222880 0.5019 0.6589 1.0000
v 14.400507 2.026442 -8.222880 0.3490 0.5569 1.0000
v 14.883493 1.729145 -8.449999 0.3137 0.3137 0.6510
v 14.616507 1.729145 -8.449999 0.3137 0.3137 0.6510
v 15.182000 2.140002 -8.449999 0.3490 0.5569 1.0000
v 15.099495 1.886078 -8.449999 0.3137 0.3137 0.6510
v 14.883493 2.550859 -8.449999 0.5019 0.6589 1.0000
v 15.099495 2.393925 -8.449999 0.5019 0.6589 1.0000
v 14.400505 2.393925 -8.449999 0.5019 0.6589 1.0000
v 14.616507 2.550859 -8.449999 0.5019 0.6589 1.0000
v 14.400505 1.886078 -8.449999 0.3137 0.3137 0.6510
v 14.318000 2.140002 -8.449999 0.3490 0.5569 1.0000
v 10.135144 1.138694 -12.500000 0.3137 0.3137 0.6510
v 11.755143 1.138694 -12.499999 0.3137 0.3137 0.6510
v 10.135144 1.038694 -11.799999 0.3137 0.3137 0.6510
v 10.135144 1.138694 -11.799999 0.3137 0.3137 0.6510
v 11.755143 1.038694 -11.799998 0.8706 0.2902 0.4000
v 11.755143 1.138694 -11.799998 0.8706 0.2902 0.4000
v 10.135144 1.038694 -12.500000 0.3137 0.3137 0.6510
v 10.135144 1.038694 -11.799999 0.3137 0.3137 0.6510
vn -0.0000 0.5300 0.8480
vn 0.8480 0.5300 -0.0000
vn -0.8480 0.5300 -0.0000
vn 0.3151 -0.1024 0.9435
vn 0.2680 -0.7002 0.6617
vn 0.1947 0.2680 0.9435
vn -0.1947 0.2680 0.9435
vn -0.3151 -0.1024 0.9435
vn 0.2680 -0.9050 0.3304
vn 0.9435 -0.0247 0.3304
vn 0.3151 0.8897 0.3304
vn -0.7488 0.5746 0.3304
vn -0.7779 -0.5346 0.3304
vn 0.5831 -0.8026 0.1256
vn 0.9435 0.3066 0.1256
vn -0.0000 0.9921 0.1256
vn -0.9435 0.3066 0.1256
vn -0.5831 -0.8026 0.1256
vn -0.9342 -0.3035 0.1876
vn -0.9435 -0.0247 0.3304
vn -0.5773 0.7947 0.1876
vn -0.3151 0.8897 0.3304
vn 0.5773 0.7947 0.1876
vn 0.7488 0.5746 0.3304
vn 0.9342 -0.3035 0.1876
vn 0.7779 -0.5346 0.3304
vn -0.0000 -0.9822 0.1876
vn -0.2680 -0.9050 0.3304
vn -0.5831 -0.4713 0.6617
vn -0.5773 -0.1876 0.7947
vn -0.7488 0.0385 0.6617
vn -0.6284 0.4089 0.6617
vn -0.3568 0.4911 0.7947
vn -0.1947 0.7240 0.6617
vn 0.1947 0.7240 0.6617
vn 0.3568 0.4911 0.7947
vn 0.6284 0.4089 0.6617
vn -0.2680 -0.7002 0.6617
vn -0.0000 -0.6071 0.7947
vn -0.0000 -0.3313 0.9435
vn 0.7488 0.0385 0.6617
vn 0.5773 -0.1876 0.7947
vn 0.5831 -0.4713 0.6617
vn -0.0000 -0.0000 1.0000
vn -0.0000 1.0000 -0.0000
vn -1.0000 -0.0000 -0.0000
s 0
f 5//1 6//1 3//1
f 4//2 1//2 2//2
f 11//1 12//1 9//1
f 10//2 7//2 8//2
f 17//1 15//1 18//1
f 16//3 14//3 13//3
f 19//4 26//4 25//4
f 20//5 26//5 28//5
f 19//6 25//6 30//6
f 19//7 30//7 32//7
f 19//8 32//8 29//8
f 20//9 28//9 35//9
f 21//10 27//10 37//10
f 22//11 31//11 39//11
f 23//12 33//12 41//12
f 24//13 34//13 43//13
f 20//14 35//14 38//14
f 21//15 37//15 40//15
f 22//16 39//16 42//16
f 23//17 41//17 44//17
f 24//18 43//18 36//18
f 43//19 34//19 44//19
f 34//20 23//20 44//20
f 41//21 33//21 42//21
f 33//22 22//22 42//22
f 39//23 31//23 40//23
f 31//24 21//24 40//24
f 37//25 27//25 38//25
f 27//26 20//26 38//26
f 35//27 28//27 36//27
f 28//28 24//28 36//28
f 29//29 34//29 24//29
f 29//30 32//30 34//30
f 32//31 23//31 34//31
f 32//32 33//32 23//32
f 32//33 30//33 33//33
f 30//34 22//34 33//34
f 30//35 31//35 22//35
f 30//36 25//36 31//36
f 25//37 21//37 31//37
f 28//38 29//38 24//38
f 28//39 26//39 29//39
f 26//40 19//40 29//40
f 25//41 27//41 21//41
f 25//42 26//42 27//42
f 26//43 20//43 27//43
f 45//4 52//4 51//4
f 46//5 52//5 54//5
f 45//6 51//6 56//6
f 45//7 56//7 58//7
f 45//8 58//8 55//8
f 46//9 54//9 61//9
f 47//10 53//10 63//10
f 48//11 57//11 65//11
f 49//12 59//12 67//12
f 50//13 60//13 69//13
f 46//14 61//14 64//14
f 47//15 63//15 66//15
f 48//16 65//16 68//16
f 49//17 67//17 70//17
f 50//18 69//18 62//18
f 69//19 60//19 70//19
f 60//20 49//20 70//20
f 67//21 59//21 68//21
f 59//22 48//22 68//22
f 65//23 57//23 66//23
f 57//24 47//24 66//24
f 63//25 53//25 64//25
f 53//26 46//26 64//26
f 61//27 54//27 62//27
f 54//28 50//28 62//28
f 55//29 60//29 50//29
f 55//30 58//30 60//30
f 58//31 49//31 60//31
f 58//32 59//32 49//32
f 58//33 56//33 59//33
f 56//34 48//34 59//34
f 56//35 57//35 48//35
f 56//36 51//36 57//36
f 51//37 47//37 57//37
f 54//38 55//38 50//38
f 54//39 52//39 55//39
f 52//40 45//40 55//40
f 51//41 53//41 47//41
f 51//42 52//42 53//42
f 52//43 46//43 53//43
f 76//44 73//44 75//44
f 72//45 74//45 76//45
f 71//46 78//46 74//46
f 76//44 74//44 73//44
f 72//45 71//45 74//45
f 71//46 77//46 78//46
