# Blender 4.0.2
# www.blender.org
mtllib evencare3_trophy1gen2.mtl
o Cube.001
v 10.407299 1.329200 -12.350472 0.3921 0.3098 0.6157
v 10.331071 1.187000 -12.417001 0.3921 0.3098 0.6157
v 10.877748 1.329200 -12.350472 0.1451 0.1176 0.4157
v 10.964772 1.187000 -12.417000 0.3921 0.3098 0.6157
v 10.331071 1.187000 -11.822999 0.3921 0.3098 0.6157
v 10.877748 1.176992 -12.350472 0.1451 0.1176 0.4157
v 10.964772 1.187000 -11.822998 0.3921 0.3098 0.6157
v 10.877748 1.329200 -12.350472 0.3921 0.3098 0.6157
v 10.407299 1.329200 -11.880023 0.3921 0.3098 0.6157
v 10.877748 1.329200 -11.880023 0.3921 0.3098 0.6157
v 10.628311 1.318615 -12.104280 0.1451 0.1176 0.4157
v 10.670992 1.318615 -12.104280 0.1451 0.1176 0.4157
v 10.649652 1.652189 -12.104280 0.1451 0.1176 0.4157
v 10.331071 1.093000 -11.822999 0.1451 0.1176 0.4157
v 10.331071 1.187000 -11.822999 0.1451 0.1176 0.4157
v 10.964772 1.093000 -11.822998 0.1451 0.1176 0.4157
v 10.964772 1.187000 -11.822998 0.1451 0.1176 0.4157
v 10.407299 1.176992 -11.880023 0.1451 0.1176 0.4157
v 10.407299 1.329200 -11.880023 0.1451 0.1176 0.4157
v 10.877748 1.176992 -11.880023 0.1451 0.1176 0.4157
v 10.877748 1.329200 -11.880023 0.1451 0.1176 0.4157
v 10.877748 1.176992 -11.880023 0.1451 0.1176 0.4157
v 10.877748 1.329200 -11.880023 0.1451 0.1176 0.4157
v 10.407300 1.329200 -11.880023 0.1451 0.1176 0.4157
v 10.407300 1.176992 -11.880023 0.1451 0.1176 0.4157
v 10.407300 1.176992 -12.350472 0.1451 0.1176 0.4157
v 10.407300 1.329200 -12.350472 0.1451 0.1176 0.4157
v 10.331071 1.093000 -12.417001 0.1451 0.1176 0.4157
v 10.331071 1.187000 -12.417001 0.1451 0.1176 0.4157
v 10.964772 1.093000 -12.417000 0.1451 0.1176 0.4157
v 10.964772 1.187000 -12.417000 0.1451 0.1176 0.4157
vn -0.0000 1.0000 -0.0000
vn 1.0000 -0.0000 -0.0000
vn -0.0000 -0.0000 1.0000
vn -1.0000 -0.0000 -0.0000
vt 0.000000 0.000000
s 0
f 8/1/1 9/1/1 10/1/1
f 3/1/2 22/1/2 6/1/2
f 4/1/1 5/1/1 7/1/1
f 12/1/3 13/1/3 11/1/3
f 17/1/3 14/1/3 16/1/3
f 21/1/3 18/1/3 20/1/3
f 24/1/4 26/1/4 25/1/4
f 15/1/4 28/1/4 14/1/4
f 16/1/2 31/1/2 17/1/2
f 8/1/1 1/1/1 9/1/1
f 3/1/2 23/1/2 22/1/2
f 4/1/1 2/1/1 5/1/1
f 17/1/3 15/1/3 14/1/3
f 21/1/3 19/1/3 18/1/3
f 24/1/4 27/1/4 26/1/4
f 15/1/4 29/1/4 28/1/4
f 16/1/2 30/1/2 31/1/2
