# Blender 4.0.2
# www.blender.org
mtllib evencare3_trophy1.mtl
o Cube.003
v 10.435811 1.344587 -12.321960 0.3921 0.3098 0.6157
v 10.340771 1.186999 -12.417001 0.3921 0.3098 0.6157
v 10.863492 1.344587 -12.321960 0.1451 0.1176 0.4157
v 10.934772 1.186999 -12.417000 0.3921 0.3098 0.6157
v 10.340771 1.186999 -11.822999 0.3921 0.3098 0.6157
v 10.863492 1.186215 -12.321960 0.1451 0.1176 0.4157
v 10.934772 1.186999 -11.822998 0.3921 0.3098 0.6157
v 10.863492 1.344587 -12.321960 0.3921 0.3098 0.6157
v 10.435811 1.344587 -11.894279 0.3921 0.3098 0.6157
v 10.863492 1.344587 -11.894279 0.3921 0.3098 0.6157
v 10.620012 1.338614 -12.104280 0.1451 0.1176 0.4157
v 10.679291 1.338614 -12.104280 0.1451 0.1176 0.4157
v 10.649652 1.652188 -12.104280 0.1451 0.1176 0.4157
v 10.340771 1.092999 -11.822999 0.1451 0.1176 0.4157
v 10.340771 1.186999 -11.822999 0.1451 0.1176 0.4157
v 10.934772 1.092999 -11.822998 0.1451 0.1176 0.4157
v 10.934772 1.186999 -11.822998 0.1451 0.1176 0.4157
v 10.435811 1.186215 -11.894279 0.1451 0.1176 0.4157
v 10.435811 1.344587 -11.894279 0.1451 0.1176 0.4157
v 10.863492 1.186215 -11.894279 0.1451 0.1176 0.4157
v 10.863492 1.344587 -11.894279 0.1451 0.1176 0.4157
v 10.934772 1.092999 -12.417000 0.1451 0.1176 0.4157
v 10.934772 1.186999 -12.417000 0.1451 0.1176 0.4157
v 10.934772 1.092999 -11.822998 0.1451 0.1176 0.4157
v 10.934772 1.186999 -11.822998 0.1451 0.1176 0.4157
v 10.863492 1.186215 -11.894279 0.1451 0.1176 0.4157
v 10.863492 1.344587 -11.894279 0.1451 0.1176 0.4157
v 10.340772 1.092999 -11.822998 0.1451 0.1176 0.4157
v 10.340772 1.186999 -11.822998 0.1451 0.1176 0.4157
v 10.340772 1.092999 -12.417000 0.1451 0.1176 0.4157
v 10.340772 1.186999 -12.417000 0.1451 0.1176 0.4157
v 10.435811 1.344587 -11.894279 0.1451 0.1176 0.4157
v 10.435811 1.186215 -11.894279 0.1451 0.1176 0.4157
v 10.435811 1.186215 -12.321961 0.1451 0.1176 0.4157
v 10.435811 1.344587 -12.321961 0.1451 0.1176 0.4157
vn -0.0000 1.0000 -0.0000
vn 1.0000 -0.0000 -0.0000
vn -0.0000 -0.0000 1.0000
vn -1.0000 -0.0000 -0.0000
vt 0.000000 0.000000
s 0
f 8/1/1 9/1/1 10/1/1
f 3/1/2 26/1/2 6/1/2
f 4/1/1 5/1/1 7/1/1
f 12/1/3 13/1/3 11/1/3
f 17/1/3 14/1/3 16/1/3
f 21/1/3 18/1/3 20/1/3
f 23/1/2 24/1/2 22/1/2
f 29/1/4 30/1/4 28/1/4
f 32/1/4 34/1/4 33/1/4
f 8/1/1 1/1/1 9/1/1
f 3/1/2 27/1/2 26/1/2
f 4/1/1 2/1/1 5/1/1
f 17/1/3 15/1/3 14/1/3
f 21/1/3 19/1/3 18/1/3
f 23/1/2 25/1/2 24/1/2
f 29/1/4 31/1/4 30/1/4
f 32/1/4 35/1/4 34/1/4
