# Blender v2.79 (sub 0) OBJ File: ''
# www.blender.org
mtllib evencare6_col.mtl
o Cube.001
v -3.000000 -0.000000 2.000000
v -4.000000 0.000000 -0.500000
v -4.000000 1.000000 -0.500000
v -3.000000 1.000000 2.000000
v 1.000000 -0.000000 1.000000
v 1.000000 -0.000000 3.000000
v 1.000000 1.000000 3.000000
v 1.000000 1.000000 1.000000
v -2.200000 -0.000000 3.000000
v -2.200000 1.000000 3.000000
v -2.000000 0.000000 -1.500000
v 1.000000 0.000000 -1.500000
v 1.000000 1.000000 -1.500000
v -2.000000 1.000000 -1.500000
v -2.000000 0.000000 -0.500000
v -2.000000 1.000000 -0.500000
v 1.000000 0.000000 -0.500000
v 1.000000 1.000000 -0.500000
v 5.000000 1.000000 1.000000
v 5.000000 -0.000000 1.000000
v 5.000000 0.000000 -0.500000
v 5.000000 1.000000 -0.500000
v -0.800000 -0.000000 3.000000
v -0.800000 1.000000 3.000000
v -0.800000 -0.000001 6.500000
v -0.800000 0.999999 6.500000
v -2.200000 0.999999 6.500000
v -2.200000 -0.000001 6.500000
v -3.000000 1.000000 3.000000
v -3.000000 -0.000000 3.000000
v -4.000000 1.000000 2.000000
v -4.000000 -0.000000 2.000000
vn 1.0000 0.0000 0.0000
vn 0.7071 0.0000 -0.7071
vn -1.0000 0.0000 0.0000
vn 0.0000 -0.0000 1.0000
vn 0.0000 0.0000 -1.0000
usemtl None
s 1
f 2//1 31//2 32//2
f 6//3 8//3 5//3
f 30//2 4//1 29//2
f 12//4 14//4 11//4
f 15//4 3//4 2//4
f 15//1 14//1 16//1
f 18//3 12//3 17//3
f 8//5 20//5 5//5
f 17//4 22//4 18//4
f 23//5 7//5 6//5
f 23//3 26//3 24//3
f 10//1 28//1 9//1
f 30//2 10//5 9//5
f 32//2 4//5 1//5
f 2//1 3//1 31//2
f 6//3 7//3 8//3
f 30//2 1//1 4//1
f 12//4 13//4 14//4
f 15//4 16//4 3//4
f 15//1 11//1 14//1
f 18//3 13//3 12//3
f 8//5 19//5 20//5
f 17//4 21//4 22//4
f 23//5 24//5 7//5
f 23//3 25//3 26//3
f 10//1 27//1 28//1
f 30//2 29//2 10//5
f 32//2 31//2 4//5
