# Blender v2.79 (sub 0) OBJ File: ''
# www.blender.org
mtllib evencare7_col.mtl
o Cube.001
v 0.800000 0.000003 -15.500000
v 0.000000 1.000003 -15.500000
v 0.000000 0.000003 -15.500000
v 12.000000 0.000001 -6.500000
v 7.000000 1.000001 -6.500000
v 7.000000 0.000001 -6.500000
v 12.000000 -0.000000 1.000000
v 12.000000 1.000001 -6.500000
v 0.000000 -0.000000 1.000000
v 12.000000 1.000000 1.000000
v 7.000000 0.000002 -10.500000
v 4.000000 1.000002 -11.500000
v 4.000000 0.000002 -11.500000
v 0.000000 1.000000 1.000000
v 0.800000 1.000003 -18.500000
v 0.800000 1.000003 -15.500000
v 2.200000 1.000003 -15.500000
v 2.200000 0.000003 -18.500000
v 2.200000 0.000003 -15.500000
v 4.000000 1.000003 -15.500000
v 4.000000 0.000003 -15.500000
v 7.000000 1.000002 -10.500000
v 0.800000 0.000003 -18.500000
v 2.200000 1.000003 -18.500000
v 5.100000 0.000002 -10.500000
v 5.100000 1.000002 -10.500000
v 5.100000 0.000002 -11.500000
v 5.100000 1.000002 -11.500000
vn 0.0000 0.0000 1.0000
vn -1.0000 0.0000 0.0000
vn 0.0000 0.0000 -1.0000
vn -0.7071 0.0000 0.7071
vn 1.0000 0.0000 0.0000
usemtl None
s 1
f 1//1 2//1 3//1
f 4//1 5//1 6//1
f 7//2 8//2 4//2
f 9//3 10//3 7//3
f 22//1 25//4 11//1
f 5//2 11//2 6//2
f 3//5 14//5 9//5
f 1//5 15//5 16//5
f 17//2 18//2 19//2
f 13//2 20//2 21//2
f 21//1 17//1 19//1
f 1//1 16//1 2//1
f 4//1 8//1 5//1
f 7//2 10//2 8//2
f 9//3 14//3 10//3
f 26//4 27//4 25//4
f 5//2 22//2 11//2
f 3//5 2//5 14//5
f 1//5 23//5 15//5
f 17//2 24//2 18//2
f 13//2 12//2 20//2
f 21//1 20//1 17//1
f 28//4 13//1 27//4
f 22//1 26//4 25//4
f 26//4 28//4 27//4
f 28//4 12//1 13//1
