# Blender 4.0.2
# www.blender.org
mtllib evencare2.mtl
o Scene
v 1.500000 0.000053 -2.500000 1.0000 1.0000 1.0000
v 0.500000 0.000048 -2.500000 1.0000 1.0000 1.0000
v 1.500000 -0.000047 -1.500000 1.0000 1.0000 1.0000
v -0.500000 -0.000048 -1.500000 1.0000 1.0000 1.0000
v -0.500000 0.000052 -2.500000 1.0000 1.0000 1.0000
v 3.500000 -0.000044 -1.500000 1.0000 1.0000 1.0000
v 4.500000 -0.000095 -1.500100 1.0000 1.0000 1.0000
v 4.500000 -0.000082 -0.500098 1.0000 1.0000 1.0000
v 4.500000 0.000030 -2.500000 1.0000 1.0000 1.0000
v 3.500000 0.000056 -2.500000 1.0000 1.0000 1.0000
v 3.500000 0.000102 -3.499900 1.0000 1.0000 1.0000
v 3.500000 -0.000084 -4.499806 1.0000 1.0000 1.0000
v 4.500000 0.000110 -3.499900 1.0000 1.0000 1.0000
v 5.500000 -0.000082 -0.500098 1.0000 1.0000 1.0000
v 5.500000 -0.000084 -4.499806 1.0000 1.0000 1.0000
v 5.500000 0.000167 -3.499800 1.0000 1.0000 1.0000
v 6.500000 -0.000069 -1.500000 1.0000 1.0000 1.0000
v 5.500000 -0.000038 -1.500000 1.0000 1.0000 1.0000
v 8.500000 -0.000054 -1.500000 1.0000 1.0000 1.0000
v 9.500000 0.000046 -2.500000 1.0000 1.0000 1.0000
v 8.500000 0.000046 -2.500000 1.0000 1.0000 1.0000
v 5.500000 0.000077 -2.499900 1.0000 1.0000 1.0000
v 6.500000 0.000186 -3.499900 1.0000 1.0000 1.0000
v 7.500000 -0.000084 -4.499806 1.0000 1.0000 1.0000
v 6.500000 -0.000084 -4.499806 1.0000 1.0000 1.0000
v 7.500000 0.000141 -3.499800 1.0000 1.0000 1.0000
v 8.500000 0.000109 -3.499800 1.0000 1.0000 1.0000
v 7.500000 0.000086 -2.499900 1.0000 1.0000 1.0000
v 7.500000 -0.000026 -1.500000 1.0000 1.0000 1.0000
v 6.500000 0.000032 -2.500000 1.0000 1.0000 1.0000
v 6.500000 -0.000082 -0.500098 1.0000 1.0000 1.0000
v 7.500000 -0.000085 0.499953 1.0000 1.0000 1.0000
v 8.500000 -0.000082 -0.500098 1.0000 1.0000 1.0000
v 7.500000 -0.000082 -0.500098 1.0000 1.0000 1.0000
v 9.500000 0.000155 -3.499900 1.0000 1.0000 1.0000
v 11.500000 -0.000065 -1.500000 1.0000 1.0000 1.0000
v 12.500000 -0.000065 -1.500000 1.0000 1.0000 1.0000
v 12.500000 0.000093 -3.499900 1.0000 1.0000 1.0000
v 12.500000 0.000036 -2.500000 1.0000 1.0000 1.0000
v 9.500000 -0.000084 -4.499806 1.0000 1.0000 1.0000
v 10.500000 0.000121 -3.499800 1.0000 1.0000 1.0000
v 11.500000 -0.000084 -4.499806 1.0000 1.0000 1.0000
v 10.500000 0.000087 -2.499900 1.0000 1.0000 1.0000
v 11.500000 0.000036 -2.500000 1.0000 1.0000 1.0000
v 10.500000 -0.000082 -0.500098 1.0000 1.0000 1.0000
v 11.500000 -0.000082 -0.500098 1.0000 1.0000 1.0000
v 11.500000 -0.000085 0.499953 1.0000 1.0000 1.0000
v 9.500000 -0.000082 -0.500098 1.0000 1.0000 1.0000
v 10.500000 -0.000085 0.499953 1.0000 1.0000 1.0000
v 10.500000 -0.000023 -1.500000 1.0000 1.0000 1.0000
v 9.500000 -0.000054 -1.500000 1.0000 1.0000 1.0000
v 12.500000 -0.000082 -0.500098 1.0000 1.0000 1.0000
v 11.500000 0.000093 -3.499900 1.0000 1.0000 1.0000
v 13.500000 0.000144 -3.499800 1.0000 1.0000 1.0000
v 13.500000 0.000061 -2.499900 1.0000 1.0000 1.0000
v 13.500000 -0.000044 -1.500000 1.0000 1.0000 1.0000
v 14.500000 -0.000082 -0.500098 1.0000 1.0000 1.0000
v 14.500000 -0.000010 -2.500000 1.0000 1.0000 1.0000
v 14.500000 0.000109 -3.499900 1.0000 1.0000 1.0000
v 13.500000 -0.000082 -0.500098 1.0000 1.0000 1.0000
v 13.500000 -0.000085 0.499953 1.0000 1.0000 1.0000
v 15.500000 0.000040 -2.499900 1.0000 1.0000 1.0000
v 15.500000 -0.000084 -4.499806 1.0000 1.0000 1.0000
v 15.500000 0.000140 -3.499900 1.0000 1.0000 1.0000
v 14.500000 -0.000102 -1.500100 1.0000 1.0000 1.0000
v 16.500000 -0.000234 1.499800 1.0000 1.0000 1.0000
v 15.500000 -0.000103 -1.500100 1.0000 1.0000 1.0000
v 16.500000 -0.000056 -1.500100 1.0000 1.0000 1.0000
v 16.500000 -1.000085 1.499975 0.2000 0.2000 0.5804
v 14.500000 -1.000085 0.499953 0.2000 0.2000 0.5804
v 14.500000 -0.000085 0.499953 1.0000 1.0000 1.0000
v 15.500000 -1.000085 0.499953 0.2000 0.2000 0.5804
v 12.500000 -0.000085 0.499953 1.0000 1.0000 1.0000
v 13.500000 -1.000085 0.499953 0.2000 0.2000 0.5804
v 11.500000 -1.000085 0.499953 0.2000 0.2000 0.5804
v 12.500000 -1.000085 0.499953 0.2000 0.2000 0.5804
v 10.500000 -1.000085 0.499953 0.2000 0.2000 0.5804
v 9.500000 -0.000085 0.499953 1.0000 1.0000 1.0000
v 8.500000 -1.000085 0.499953 0.2000 0.2000 0.5804
v 9.500000 -1.000085 0.499953 0.2000 0.2000 0.5804
v 7.500000 -1.000085 0.499953 0.2000 0.2000 0.5804
v 8.500000 -0.000085 0.499953 1.0000 1.0000 1.0000
v 6.500000 -0.000085 0.499953 1.0000 1.0000 1.0000
v 5.500000 -1.000085 0.499953 0.2000 0.2000 0.5804
v 5.500000 -0.000085 0.499953 1.0000 1.0000 1.0000
v 6.500000 -1.000085 0.499953 0.2000 0.2000 0.5804
v 4.500000 -1.000085 0.499953 0.2000 0.2000 0.5804
v 4.500000 -0.000085 0.499953 1.0000 1.0000 1.0000
v 3.500000 -1.000085 0.499953 0.2000 0.2000 0.5804
v 2.500000 -1.000085 -0.500098 0.2000 0.2000 0.5804
v 2.500000 -0.000082 -0.500098 1.0000 1.0000 1.0000
v 1.500000 -1.000233 -1.500200 0.2000 0.2000 0.5804
v 0.500000 -1.000233 -1.500200 0.2000 0.2000 0.5804
v 0.500000 -0.000052 -1.500000 1.0000 1.0000 1.0000
v -0.500000 -1.000233 -1.500200 0.2000 0.2000 0.5804
v 2.500000 -1.000233 -1.500200 0.2000 0.2000 0.5804
v 4.500000 -0.000084 -4.499806 1.0000 1.0000 1.0000
v 5.500000 0.999767 -4.500200 1.0000 1.0000 1.0000
v 10.500000 -0.000084 -4.499806 1.0000 1.0000 1.0000
v 12.500000 -0.000084 -4.499806 1.0000 1.0000 1.0000
v 12.500000 0.999767 -4.500200 1.0000 1.0000 1.0000
v 14.500000 -0.000084 -4.499806 1.0000 1.0000 1.0000
v 15.500000 0.999767 -4.500200 1.0000 1.0000 1.0000
v 13.500000 -0.000084 -4.499806 1.0000 1.0000 1.0000
v 8.500000 -0.000084 -4.499806 1.0000 1.0000 1.0000
v 16.500000 0.999768 -5.500200 1.0000 1.0000 1.0000
v 14.500000 0.999767 -4.500200 1.0000 1.0000 1.0000
v 11.500000 0.999767 -4.500200 1.0000 1.0000 1.0000
v 9.500000 0.999767 -4.500200 1.0000 1.0000 1.0000
v 5.500000 1.999767 -4.500200 1.0000 1.0000 1.0000
v 3.500000 0.999767 -4.500200 1.0000 1.0000 1.0000
v 4.500000 1.999767 -4.500200 1.0000 1.0000 1.0000
v 3.500000 1.999767 -4.500200 1.0000 1.0000 1.0000
v 2.500000 0.999767 -3.500200 1.0000 1.0000 1.0000
v 13.500000 2.999768 -4.500200 1.0000 1.0000 1.0000
v 15.500000 1.999767 -4.500200 1.0000 1.0000 1.0000
v 16.500000 2.999768 -5.500200 1.0000 1.0000 1.0000
v 15.500000 2.999768 -4.500200 1.0000 1.0000 1.0000
v 14.500000 2.999768 -4.500200 1.0000 1.0000 1.0000
v 12.500000 2.999768 -4.500200 1.0000 1.0000 1.0000
v 11.500000 2.999768 -4.500200 1.0000 1.0000 1.0000
v 12.500000 1.999767 -4.500200 1.0000 1.0000 1.0000
v 10.500000 2.999768 -4.500200 1.0000 1.0000 1.0000
v 9.500000 2.999768 -4.500200 1.0000 1.0000 1.0000
v 8.500000 2.999768 -4.500200 1.0000 1.0000 1.0000
v 8.500000 1.999767 -4.500200 1.0000 1.0000 1.0000
v 7.500000 2.999768 -4.500200 1.0000 1.0000 1.0000
v 7.500000 1.999767 -4.500200 1.0000 1.0000 1.0000
v 6.500000 2.999768 -4.500200 1.0000 1.0000 1.0000
v 5.500000 2.999768 -4.500200 1.0000 1.0000 1.0000
v 4.500000 2.999768 -4.500200 1.0000 1.0000 1.0000
v 2.500000 1.999767 -3.500200 1.0000 1.0000 1.0000
v 3.500000 2.999768 -4.500200 1.0000 1.0000 1.0000
v 2.500000 2.999768 -3.500200 1.0000 1.0000 1.0000
v 16.500000 -0.000120 -5.500175 1.0000 1.0000 1.0000
v 16.500000 0.999767 -4.500200 1.0000 1.0000 1.0000
v 16.500000 0.000111 -3.499900 1.0000 1.0000 1.0000
v 16.500000 0.999767 0.499953 1.0000 1.0000 1.0000
v 16.500000 0.999766 1.499800 1.0000 1.0000 1.0000
v 16.500000 0.999767 -0.500098 1.0000 1.0000 1.0000
v 16.500000 0.999767 -1.500200 1.0000 1.0000 1.0000
v 16.500000 1.999767 -0.500098 1.0000 1.0000 1.0000
v 16.500000 1.999767 -1.500200 1.0000 1.0000 1.0000
v 16.500000 1.999915 -2.500025 1.0000 1.0000 1.0000
v 16.500000 0.999767 -3.500200 1.0000 1.0000 1.0000
v 16.500000 1.999767 -4.500200 1.0000 1.0000 1.0000
v 16.500000 1.999768 -5.500200 1.0000 1.0000 1.0000
v 16.500000 2.999768 -3.500200 1.0000 1.0000 1.0000
v 16.500000 2.999768 -4.500200 1.0000 1.0000 1.0000
v 16.500000 1.999767 -3.500200 1.0000 1.0000 1.0000
v 16.500000 2.999767 -0.500098 1.0000 1.0000 1.0000
v 16.500000 1.999766 0.499953 1.0000 1.0000 1.0000
v 16.500000 2.999767 1.499800 1.0000 1.0000 1.0000
v 16.500000 2.999767 0.499953 1.0000 1.0000 1.0000
v 16.500000 1.999766 1.499800 1.0000 1.0000 1.0000
v 16.500000 -0.000085 -2.500025 1.0000 1.0000 1.0000
v 17.500000 -0.000613 -1.500575 1.0000 1.0000 1.0000
v 17.500000 -0.000512 -2.500575 1.0000 1.0000 1.0000
v 18.500000 -0.000614 -1.500575 1.0000 1.0000 1.0000
v 19.500000 -0.000515 -2.500575 1.0000 1.0000 1.0000
v 18.500000 -0.000514 -2.500575 1.0000 1.0000 1.0000
v 18.500000 -1.000233 -1.500200 0.2000 0.2000 0.5804
v 19.500000 -0.000615 -1.500575 1.0000 1.0000 1.0000
v 19.500000 -1.000233 -1.500200 0.2000 0.2000 0.5804
v 16.500000 -1.000233 -1.500200 0.2000 0.2000 0.5804
v 17.500000 -1.000233 -1.500200 0.2000 0.2000 0.5804
v 16.500000 -0.000085 0.499953 1.0000 1.0000 1.0000
v 13.500000 1.999767 -4.500200 1.0000 1.0000 1.0000
v 13.500000 0.999767 -4.500200 1.0000 1.0000 1.0000
v 15.500000 0.999768 -5.500200 1.0000 1.0000 1.0000
v 14.500000 0.999863 -5.500175 1.0000 1.0000 1.0000
v 13.500000 0.999768 -5.500200 1.0000 1.0000 1.0000
v 12.500000 0.999859 -5.500175 1.0000 1.0000 1.0000
v 11.500000 0.999860 -5.500175 1.0000 1.0000 1.0000
v 10.500000 0.999860 -5.500175 1.0000 1.0000 1.0000
v 9.500000 0.999847 -5.500175 1.0000 1.0000 1.0000
v 6.500000 0.999888 -5.500175 1.0000 1.0000 1.0000
v 7.500000 0.999767 -4.500200 1.0000 1.0000 1.0000
v 4.500000 0.999891 -5.500175 1.0000 1.0000 1.0000
v 9.500000 1.999767 -4.500200 1.0000 1.0000 1.0000
v 7.500000 0.999888 -5.500175 1.0000 1.0000 1.0000
v 5.500000 0.999891 -5.500175 1.0000 1.0000 1.0000
v 5.500000 1.999768 -5.500200 1.0000 1.0000 1.0000
v 4.500000 0.999767 -4.500200 1.0000 1.0000 1.0000
v 4.500000 1.999768 -5.500200 1.0000 1.0000 1.0000
v 6.500000 0.999767 -4.500200 1.0000 1.0000 1.0000
v 6.500000 1.999768 -5.500200 1.0000 1.0000 1.0000
v 8.500000 0.999767 -4.500200 1.0000 1.0000 1.0000
v 8.500000 1.999768 -5.500200 1.0000 1.0000 1.0000
v 8.500000 0.999847 -5.500175 1.0000 1.0000 1.0000
v 10.500000 0.999767 -4.500200 1.0000 1.0000 1.0000
v 10.500000 1.999768 -5.500200 1.0000 1.0000 1.0000
v 10.500000 1.999767 -4.500200 1.0000 1.0000 1.0000
v 12.500000 1.999768 -5.500200 1.0000 1.0000 1.0000
v 14.500000 1.999767 -4.500200 1.0000 1.0000 1.0000
v 14.500000 1.999768 -5.500200 1.0000 1.0000 1.0000
v 15.500000 1.999768 -5.500200 1.0000 1.0000 1.0000
v 13.500000 1.999768 -5.500200 1.0000 1.0000 1.0000
v 11.500000 1.999767 -4.500200 1.0000 1.0000 1.0000
v 11.500000 1.999768 -5.500200 1.0000 1.0000 1.0000
v 9.500000 1.999768 -5.500200 1.0000 1.0000 1.0000
v 6.500000 1.999767 -4.500200 1.0000 1.0000 1.0000
v 7.500000 1.999768 -5.500200 1.0000 1.0000 1.0000
v 2.500000 0.999915 -2.500025 1.0000 1.0000 1.0000
v 2.500000 -0.000047 -1.500000 1.0000 1.0000 1.0000
v 15.500000 -0.000085 0.499953 1.0000 1.0000 1.0000
v 2.500000 2.999768 -2.500200 1.0000 1.0000 1.0000
v 15.500000 -0.000082 -0.500098 1.0000 1.0000 1.0000
v 2.500000 0.999767 -0.500098 1.0000 1.0000 1.0000
v 2.500000 1.999767 -0.500098 1.0000 1.0000 1.0000
v 2.500000 0.999767 -1.500200 1.0000 1.0000 1.0000
v 16.500000 -0.000082 -0.500098 1.0000 1.0000 1.0000
v 2.500000 2.999767 -1.500200 1.0000 1.0000 1.0000
v 2.500000 2.999767 -0.500098 1.0000 1.0000 1.0000
v 16.500000 0.000110 1.500100 1.0000 1.0000 1.0000
v 2.500000 1.999767 -1.500200 1.0000 1.0000 1.0000
v 15.500000 0.000102 1.500100 1.0000 1.0000 1.0000
v 2.500000 -0.000085 0.499953 1.0000 1.0000 1.0000
v 3.500000 -0.000085 0.499953 1.0000 1.0000 1.0000
v 3.500000 -0.000082 -0.500098 1.0000 1.0000 1.0000
v 2.500000 -0.000085 -2.500025 1.0000 1.0000 1.0000
v 2.500000 1.999915 -2.500025 1.0000 1.0000 1.0000
v 16.500000 2.999767 -1.500200 1.0000 1.0000 1.0000
v 16.500000 2.999768 -2.500200 1.0000 1.0000 1.0000
v 2.500000 -0.000084 -4.499806 1.0000 1.0000 1.0000
v 16.500000 0.999915 -2.500025 1.0000 1.0000 1.0000
v 2.500000 0.000102 -3.499900 1.0000 1.0000 1.0000
v 16.500000 -0.000084 -4.499806 1.0000 1.0000 1.0000
v 16.500000 0.000229 -5.499800 1.0000 1.0000 1.0000
v 17.500000 1.999915 -3.250025 1.0000 1.0000 1.0000
v 15.500000 0.000209 -5.499800 1.0000 1.0000 1.0000
v 17.500000 0.999915 -3.250025 1.0000 1.0000 1.0000
v 16.500000 -0.000085 -2.500025 0.1373 0.1137 0.3961
v 16.500000 0.999915 -2.500025 1.0000 1.0000 1.0000
v 17.500000 -0.000085 -3.250025 0.1373 0.1137 0.3961
v 17.500000 0.999915 -3.250025 1.0000 1.0000 1.0000
vn -0.0000 0.7070 0.7072
vn 0.3162 0.9487 -0.0000
vn 0.0001 1.0000 0.0001
vn 0.3015 0.9045 0.3015
vn -0.0000 1.0000 0.0001
vn -0.0000 1.0000 -0.0002
vn -0.7071 0.7071 -0.0001
vn -0.2007 0.8515 0.4845
vn -0.0000 1.0000 -0.0000
vn -0.2597 0.7345 0.6269
vn -0.0000 1.0000 -0.0001
vn 0.7173 0.6303 0.2971
vn 0.4472 0.8944 -0.0000
vn 0.2971 0.6305 0.7171
vn -0.0000 0.7071 0.7071
vn -0.0000 0.7073 0.7069
vn 0.2006 0.8515 0.4844
vn -0.7071 0.7071 -0.0000
vn -0.3013 0.9046 0.3015
vn -0.3160 0.9488 0.0001
vn -0.0000 1.0000 0.0003
vn -0.3827 -0.0000 0.9239
vn -0.7071 0.0001 0.7071
vn -0.0000 -0.0000 1.0000
vn -0.7071 -0.0000 0.7071
vn -0.0000 -0.0002 1.0000
vn 0.3827 0.0002 0.9239
vn 0.9239 0.0001 0.3827
vn 0.3015 0.3017 0.9045
vn -0.3015 0.3017 0.9045
vn 0.1566 0.3782 0.9124
vn 0.1691 -0.0000 0.9856
vn -0.3827 0.0001 0.9239
vn 0.3162 -0.0000 0.9487
vn -0.3162 -0.0000 0.9487
vn 0.3827 -0.0000 0.9239
vn 0.9239 -0.0000 0.3827
vn -0.3826 -0.0000 0.9239
vn -1.0000 -0.0000 -0.0000
vn 0.0002 1.0000 0.0001
vn 0.0003 0.7072 0.7071
vn -0.0000 0.7072 0.7070
vn -0.0000 0.0004 1.0000
vn 0.0002 0.0001 1.0000
vn 0.7072 0.7071 0.0001
vn -0.7071 0.7071 0.0001
vn 0.7071 0.7071 0.0001
vn 1.0000 -0.0000 -0.0000
vn 0.6000 -0.0000 0.8000
vt 0.714286 0.714286
vt 0.857143 0.857143
vt 0.714286 0.857143
vt 0.857143 0.714286
vt 0.571429 0.571429
vt 0.714286 0.571429
vt 0.571429 0.714286
vt 0.000000 0.571429
vt 0.142857 0.714286
vt 0.000000 0.714286
vt 0.142857 0.571429
vt 0.285714 0.714286
vt 0.285714 0.571429
vt -0.000000 0.857143
vt 0.142857 1.000000
vt -0.000000 1.000000
vt 0.142857 0.857143
vt 0.285714 1.000000
vt 0.285714 0.857143
vt 0.857143 1.000000
vt 0.714286 1.000000
vt 0.571429 0.000000
vt 0.714286 0.142857
vt 0.571429 0.142857
vt 0.714286 0.000000
vt 0.571429 0.857143
vt 0.571429 1.000000
vt 0.861607 0.857143
vt 1.000000 1.000000
vt 0.861607 1.000000
vt 1.000000 0.857143
vt 0.428571 0.285714
vt 0.285714 0.142857
vt 0.428571 0.142857
vt 0.285714 0.285714
vt 0.285714 0.000000
vt 0.428571 0.000000
s 1
usemtl material2
f 3/1/1 221/2/2 1/3/3
f 3/1/1 205/4/4 221/2/2
f 94/1/1 1/2/3 2/3/5
f 94/1/1 3/4/1 1/2/3
f 4/1/1 2/2/5 5/3/5
f 4/1/1 94/4/1 2/2/5
f 217/5/6 167/1/7 206/6/8
f 218/5/9 219/7/10 220/1/9
f 221/1/2 11/2/11 227/3/12
f 221/1/2 10/4/5 11/2/11
f 91/1/13 6/2/5 205/3/4
f 91/1/13 220/4/9 6/2/5
f 217/5/6 215/7/6 167/1/7
f 227/1/12 11/4/11 12/2/14
f 205/8/4 10/9/5 221/10/2
f 205/8/4 6/11/5 10/9/5
f 219/1/10 8/2/9 220/3/9
f 219/1/10 88/4/15 8/2/9
f 220/1/9 7/2/5 6/3/5
f 220/1/9 8/4/9 7/2/5
f 6/1/5 9/2/5 10/3/5
f 6/1/5 7/4/5 9/2/5
f 10/1/5 13/2/11 11/3/11
f 10/1/5 9/4/5 13/2/11
f 11/1/11 97/2/16 12/3/14
f 11/1/11 13/4/11 97/2/16
f 88/1/15 14/2/9 8/3/9
f 88/1/15 85/4/15 14/2/9
f 8/1/9 18/2/5 7/3/5
f 8/1/9 14/4/9 18/2/5
f 13/1/11 15/2/16 97/3/16
f 13/1/11 16/4/11 15/2/16
f 9/1/5 16/2/11 13/3/11
f 9/1/5 22/4/5 16/2/11
f 7/1/5 22/2/5 9/3/5
f 7/1/5 18/4/5 22/2/5
f 18/8/5 30/9/5 22/10/5
f 18/8/5 17/11/5 30/9/5
f 14/8/9 17/9/5 18/10/5
f 14/8/9 31/11/9 17/9/5
f 19/8/5 20/9/5 21/10/5
f 19/8/5 51/11/5 20/9/5
f 22/1/5 23/2/11 16/3/11
f 22/1/5 30/4/5 23/2/11
f 16/1/11 25/2/16 15/3/16
f 16/1/11 23/4/11 25/2/16
f 23/1/11 24/2/16 25/3/16
f 23/1/11 26/4/11 24/2/16
f 26/1/11 105/2/16 24/3/16
f 26/1/11 27/4/11 105/2/16
f 28/1/5 27/2/11 26/3/11
f 28/1/5 21/4/5 27/2/11
f 29/1/5 21/2/5 28/3/5
f 29/1/5 19/4/5 21/2/5
f 34/1/9 19/2/5 29/3/5
f 34/1/9 33/4/9 19/2/5
f 31/1/9 29/2/5 17/3/5
f 31/1/9 34/4/9 29/2/5
f 17/1/5 28/2/5 30/3/5
f 17/1/5 29/4/5 28/2/5
f 30/1/5 26/2/11 23/3/11
f 30/1/5 28/4/5 26/2/11
f 85/1/15 31/2/9 14/3/9
f 85/1/15 83/4/15 31/2/9
f 83/1/15 34/2/9 31/3/9
f 83/1/15 32/4/15 34/2/9
f 32/1/15 33/2/9 34/3/9
f 32/1/15 82/4/15 33/2/9
f 82/1/15 48/2/9 33/3/9
f 82/1/15 78/4/15 48/2/9
f 33/1/9 51/2/5 19/3/5
f 33/1/9 48/4/9 51/2/5
f 21/1/5 35/2/11 27/3/11
f 21/1/5 20/4/5 35/2/11
f 27/1/11 40/2/16 105/3/16
f 27/1/11 35/4/11 40/2/16
f 36/8/5 39/9/5 44/10/5
f 36/8/5 37/11/5 39/9/5
f 44/8/5 38/9/11 53/10/11
f 44/8/5 39/11/5 38/9/11
f 35/1/11 99/2/16 40/3/16
f 35/1/11 41/4/11 99/2/16
f 41/1/11 42/2/16 99/3/16
f 41/1/11 53/4/11 42/2/16
f 43/1/5 53/2/11 41/3/11
f 43/1/5 44/4/5 53/2/11
f 50/1/5 44/2/5 43/3/5
f 50/1/5 36/4/5 44/2/5
f 45/1/9 36/2/5 50/3/5
f 45/1/9 46/4/9 36/2/5
f 49/1/15 46/2/9 45/3/9
f 49/1/15 47/4/15 46/2/9
f 78/1/15 45/2/9 48/3/9
f 78/1/15 49/4/15 45/2/9
f 48/1/9 50/2/5 51/3/5
f 48/1/9 45/4/9 50/2/5
f 51/1/5 43/2/5 20/3/5
f 51/1/5 50/4/5 43/2/5
f 20/1/5 41/2/11 35/3/11
f 20/1/5 43/4/5 41/2/11
f 46/1/9 37/2/5 36/3/5
f 46/1/9 52/4/9 37/2/5
f 47/1/15 52/2/9 46/3/9
f 47/1/15 73/4/15 52/2/9
f 53/1/11 100/2/16 42/3/16
f 53/1/11 38/4/11 100/2/16
f 38/1/11 104/2/16 100/3/16
f 38/1/11 54/4/11 104/2/16
f 39/1/5 54/2/11 38/3/11
f 39/1/5 55/4/5 54/2/11
f 37/1/5 55/2/5 39/3/5
f 37/1/5 56/4/5 55/2/5
f 52/1/9 56/2/5 37/3/5
f 52/1/9 60/4/9 56/2/5
f 60/1/9 65/2/9 56/3/5
f 60/1/9 57/4/9 65/2/9
f 56/1/5 58/2/5 55/3/5
f 56/1/5 65/4/9 58/2/5
f 55/1/5 59/2/9 54/3/11
f 55/1/5 58/4/5 59/2/9
f 54/1/11 102/2/16 104/3/16
f 54/1/11 59/4/9 102/2/16
f 61/1/15 57/2/9 60/3/9
f 61/1/15 71/4/15 57/2/9
f 73/1/15 60/2/9 52/3/9
f 73/1/15 61/4/15 60/2/9
f 57/1/9 67/2/9 65/3/9
f 57/1/9 208/4/9 67/2/9
f 71/1/15 208/2/9 57/3/9
f 71/1/15 206/4/8 208/2/9
f 58/1/5 64/2/11 59/3/9
f 58/1/5 62/4/5 64/2/11
f 59/1/9 63/2/17 102/3/16
f 59/1/9 64/4/11 63/2/17
f 65/8/9 62/9/5 58/10/5
f 65/8/9 67/11/9 62/9/5
f 206/1/8 212/2/18 208/3/9
f 227/1/6 12/2/6 225/3/6
f 208/1/9 68/2/19 67/3/9
f 208/1/9 212/4/18 68/2/19
f 62/1/5 137/2/18 64/3/11
f 62/1/5 156/4/20 137/2/18
f 64/1/11 228/2/18 63/3/17
f 64/1/11 137/4/18 228/2/18
f 67/1/9 156/2/20 62/3/5
f 67/1/9 68/4/19 156/2/20
f 218/5/9 220/1/9 91/6/13
f 63/1/17 228/4/18 229/2/21
f 72/11/22 66/12/23 206/9/8
f 72/11/22 69/13/23 66/12/23
f 70/11/24 206/12/8 71/9/15
f 70/11/24 72/13/22 206/12/8
f 74/11/24 71/12/15 61/9/15
f 74/11/24 70/13/24 71/12/15
f 76/11/24 61/12/15 73/9/15
f 76/11/24 74/13/24 61/12/15
f 75/11/24 73/12/15 47/9/15
f 75/11/24 76/13/24 73/12/15
f 77/11/24 47/12/15 49/9/15
f 77/11/24 75/13/24 47/12/15
f 80/11/24 49/12/15 78/9/15
f 80/11/24 77/13/24 49/12/15
f 79/11/24 78/12/15 82/9/15
f 79/11/24 80/13/24 78/12/15
f 81/11/24 82/12/15 32/9/15
f 81/11/24 79/13/24 82/12/15
f 86/11/24 32/12/15 83/9/15
f 86/11/24 81/13/24 32/12/15
f 84/11/24 83/12/15 85/9/15
f 84/11/24 86/13/24 83/12/15
f 87/11/24 85/12/15 88/9/15
f 87/11/24 84/13/24 85/12/15
f 89/11/22 88/12/15 219/9/10
f 89/11/22 87/13/24 88/12/15
f 90/11/25 219/12/10 91/9/25
f 90/11/25 89/13/22 219/12/10
f 92/11/26 205/12/4 3/9/1
f 92/11/26 96/13/26 205/12/4
f 93/11/26 3/12/1 94/9/1
f 93/11/26 92/13/26 3/12/1
f 95/11/26 94/12/1 4/9/1
f 95/11/26 93/13/26 94/12/1
f 227/14/12 111/15/27 114/16/28
f 227/14/12 12/17/14 111/15/27
f 12/14/14 184/15/29 111/16/27
f 12/14/14 97/17/16 184/15/29
f 97/17/16 98/18/30 184/15/29
f 97/17/16 15/19/16 98/18/30
f 15/14/16 186/15/29 98/16/30
f 15/14/16 25/17/16 186/15/29
f 25/14/16 178/15/30 186/16/29
f 25/14/16 24/17/16 178/15/30
f 105/14/16 109/15/30 188/16/29
f 105/14/16 40/17/16 109/15/30
f 40/14/16 191/15/29 109/16/30
f 40/14/16 99/17/16 191/15/29
f 42/14/16 101/15/29 108/16/30
f 42/14/16 100/17/16 101/15/29
f 100/14/16 169/15/30 101/16/29
f 100/14/16 104/17/16 169/15/30
f 102/14/16 103/15/31 107/16/29
f 102/14/16 63/17/17 103/15/31
f 63/1/17 229/2/21 231/3/21
f 104/17/16 107/18/29 169/15/30
f 104/17/16 102/19/16 107/18/29
f 99/17/16 108/18/30 191/15/29
f 99/17/16 42/19/16 108/18/30
f 24/17/16 188/18/29 178/15/30
f 24/17/16 105/19/16 188/18/29
f 103/3/31 147/20/22 116/21/32
f 103/3/31 106/2/33 147/20/22
f 169/3/30 195/20/34 168/21/35
f 169/3/30 107/2/29 195/20/34
f 108/3/30 122/20/34 199/21/35
f 108/3/30 101/2/29 122/20/34
f 109/3/30 193/20/34 180/21/35
f 109/3/30 191/2/29 193/20/34
f 178/3/30 126/20/34 128/21/35
f 178/3/30 188/2/29 126/20/34
f 98/3/30 202/20/34 110/21/35
f 98/3/30 186/2/29 202/20/34
f 111/3/27 112/20/34 113/21/36
f 111/3/27 184/2/29 112/20/34
f 114/3/28 113/20/36 132/21/37
f 114/3/28 111/2/27 113/20/36
f 122/22/34 115/23/24 120/24/24
f 122/22/34 168/25/35 115/23/24
f 116/22/32 117/23/22 118/24/36
f 116/22/32 147/25/22 117/23/22
f 195/22/34 118/23/36 119/24/24
f 195/22/34 116/25/32 118/23/36
f 168/22/35 119/23/24 115/24/24
f 168/22/35 195/25/34 119/23/24
f 199/22/35 120/23/24 121/24/24
f 199/22/35 122/25/34 120/23/24
f 193/22/34 121/23/24 123/24/24
f 193/22/34 199/25/35 121/23/24
f 180/22/35 123/23/24 124/24/24
f 180/22/35 193/25/34 123/23/24
f 126/22/34 124/23/24 125/24/24
f 126/22/34 180/25/35 124/23/24
f 128/22/35 125/23/24 127/24/24
f 128/22/35 126/25/34 125/23/24
f 202/22/34 127/23/24 129/24/24
f 202/22/34 128/25/35 127/23/24
f 110/22/35 129/23/24 130/24/24
f 110/22/35 202/25/34 129/23/24
f 112/22/34 130/23/24 131/24/24
f 112/22/34 110/25/35 130/23/24
f 113/22/36 131/23/24 133/24/36
f 113/22/36 112/25/34 131/23/24
f 132/22/37 133/23/36 134/24/37
f 132/22/37 113/25/36 133/23/36
f 63/14/17 106/15/33 103/16/31
f 63/14/17 135/17/38 106/15/33
f 228/14/18 145/15/39 136/16/39
f 228/14/18 137/17/18 145/15/39
f 135/14/38 136/15/39 106/16/33
f 135/14/38 228/17/18 136/15/39
f 137/14/18 226/15/39 145/16/39
f 137/14/18 156/17/20 226/15/39
f 68/14/19 140/15/39 141/16/39
f 68/14/19 212/17/18 140/15/39
f 212/14/18 138/15/39 140/16/39
f 212/14/18 167/17/7 138/15/39
f 167/14/7 139/15/39 138/16/39
f 167/14/7 66/17/39 139/15/39
f 138/3/39 155/20/39 152/21/39
f 138/3/39 139/2/39 155/20/39
f 140/3/39 152/20/39 142/21/39
f 140/3/39 138/2/39 152/20/39
f 141/3/39 142/20/39 143/21/39
f 141/3/39 140/2/39 142/20/39
f 145/3/39 144/20/39 150/21/39
f 145/3/39 226/2/39 144/20/39
f 136/3/39 150/20/39 146/21/39
f 136/3/39 145/2/39 150/20/39
f 106/3/33 146/20/39 147/21/22
f 106/3/33 136/2/39 146/20/39
f 150/22/39 224/23/39 148/24/39
f 150/22/39 144/25/39 224/23/39
f 146/22/39 148/23/39 149/24/39
f 146/22/39 150/25/39 148/23/39
f 147/22/22 149/23/39 117/24/22
f 147/22/22 146/25/39 149/23/39
f 143/22/39 151/23/39 223/24/39
f 143/22/39 142/25/39 151/23/39
f 142/22/39 154/23/39 151/24/39
f 142/22/39 152/25/39 154/23/39
f 152/22/39 153/23/39 154/24/39
f 152/22/39 155/25/39 153/23/39
f 68/1/19 158/2/40 156/3/20
f 68/1/19 157/4/41 158/2/40
f 157/1/41 161/2/5 158/3/40
f 157/1/41 159/4/42 161/2/5
f 159/1/42 160/2/5 161/3/5
f 159/1/42 163/4/42 160/2/5
f 162/11/43 163/12/42 159/9/42
f 162/11/43 164/13/43 163/12/42
f 166/11/43 159/12/42 157/9/41
f 166/11/43 162/13/43 159/12/42
f 165/11/44 157/12/41 68/9/19
f 165/11/44 166/13/43 157/12/41
f 206/1/8 167/4/7 212/2/18
f 172/26/18 168/21/35 198/27/39
f 172/26/18 169/3/30 168/21/35
f 170/26/18 116/21/32 197/27/39
f 170/26/18 103/3/31 116/21/32
f 107/26/29 170/21/18 171/27/45
f 107/26/29 103/3/31 170/21/18
f 101/26/29 172/21/18 173/27/45
f 101/26/29 169/3/30 172/21/18
f 191/26/29 174/21/46 175/27/47
f 191/26/29 108/3/30 174/21/46
f 188/26/29 176/21/46 190/27/47
f 188/26/29 109/3/30 176/21/46
f 186/26/29 181/21/46 177/27/47
f 186/26/29 178/3/30 181/21/46
f 184/26/29 182/21/46 179/27/47
f 184/26/29 98/3/30 182/21/46
f 174/26/46 199/21/35 200/27/39
f 174/26/46 108/3/30 199/21/35
f 176/26/46 180/21/35 201/27/39
f 176/26/46 109/3/30 180/21/35
f 181/26/46 128/21/35 203/27/39
f 181/26/46 178/3/30 128/21/35
f 182/26/46 110/21/35 183/27/39
f 182/26/46 98/3/30 110/21/35
f 184/26/29 185/21/48 112/27/34
f 184/26/29 179/3/47 185/21/48
f 186/26/29 187/21/48 202/27/34
f 186/26/29 177/3/47 187/21/48
f 188/26/29 189/21/48 126/27/34
f 188/26/29 190/3/47 189/21/48
f 191/26/29 192/21/48 193/27/34
f 191/26/29 175/3/47 192/21/48
f 101/26/29 194/21/48 122/27/34
f 101/26/29 173/3/45 194/21/48
f 107/26/29 196/21/48 195/27/34
f 107/26/29 171/3/45 196/21/48
f 221/14/2 114/15/28 204/16/48
f 221/14/2 227/17/12 114/15/28
f 91/14/13 211/15/48 209/16/48
f 91/14/13 205/17/4 211/15/48
f 204/3/48 132/20/37 222/21/48
f 204/3/48 114/2/28 132/20/37
f 222/22/48 134/23/37 207/24/48
f 222/22/48 132/25/37 134/23/37
f 209/3/48 216/20/48 210/21/48
f 209/3/48 211/2/48 216/20/48
f 210/22/48 213/23/48 214/24/48
f 210/22/48 216/25/48 213/23/48
f 211/28/48 222/29/48 216/30/48
f 211/28/48 204/31/48 222/29/48
f 216/22/48 207/23/48 213/24/48
f 216/22/48 222/25/48 207/23/48
f 144/22/39 223/23/39 224/24/39
f 144/22/39 143/25/39 223/23/39
f 226/28/39 143/29/39 144/30/39
f 226/28/39 141/31/39 143/29/39
s 0
f 230/32/49 226/33/49 232/34/49
f 230/32/49 144/35/49 226/33/49
f 236/34/49 233/36/49 235/37/49
f 236/34/49 234/33/49 233/36/49
