# Blender v2.79 (sub 0) OBJ File: 'evencare1.blend'
# www.blender.org
mtllib evencare1_col.mtl
o Plane
v -0.500000 0.000000 0.500000
v -0.500000 0.000000 -0.500000
v 2.500000 0.000000 -0.500000
v 14.500000 0.000000 0.500000
v -0.500000 1.000000 0.500000
v -0.500000 1.000000 -0.500000
v 2.500000 1.000000 -0.500000
v 14.500000 1.000000 0.500000
v 2.500000 0.000000 -1.500000
v 4.500000 0.000000 -1.500000
v 14.500000 0.000000 -4.500000
v 14.500000 0.000000 -5.500000
v 14.500000 0.000000 -6.500000
v 17.500000 0.000000 -4.500000
v 17.500000 0.000000 -5.500000
v 7.500000 0.000000 -6.500000
v 4.500000 0.000000 -12.500000
v 7.500000 0.000000 -12.500000
v 4.500000 1.000000 -12.500000
v 7.500000 1.000000 -12.500000
v 2.500000 1.000000 -1.500000
v 4.500000 1.000000 -1.500000
v 14.500000 1.000000 -6.500000
v 7.500000 1.000000 -6.500000
v 14.500000 1.000000 -4.500000
v 14.500000 1.000000 -5.500000
v 17.500000 1.000000 -4.500000
v 17.500000 1.000000 -5.500000
v 14.500000 1.000000 -4.500000
vn 0.0000 0.0000 1.0000
vn 0.0000 0.0000 -1.0000
vn 1.0000 0.0000 0.0000
vn -1.0000 0.0000 0.0000
usemtl None
s off
f 2//1 3//1 7//1 6//1
f 1//2 5//2 8//2 4//2
f 17//1 18//1 20//1 19//1
f 10//3 17//3 19//3 22//3
f 9//1 10//1 22//1 21//1
f 3//3 9//3 21//3 7//3
f 16//1 13//1 23//1 24//1
f 16//4 24//4 20//4 18//4
f 14//2 11//2 25//2 27//2
f 12//1 15//1 28//1 26//1
f 12//4 26//4 23//4 13//4
f 4//4 8//4 29//4 11//4
