# Blender v2.79 (sub 0) OBJ File: 'evencare4.blend'
# www.blender.org
mtllib evencare4_col.mtl
o Cube
v -1.000000 0.000000 -0.500000
v -1.000000 1.000000 -0.500000
v 4.000001 1.000000 -17.500000
v -1.000000 0.000000 1.000000
v -1.000000 1.000000 1.000000
v 7.000000 0.000000 1.000000
v 7.000000 1.000000 1.000000
v 3.000001 1.000000 -17.500000
v 7.000001 1.000000 -17.500000
v 7.000001 0.000000 -17.500000
v 3.000001 0.000000 -17.500000
v 6.000001 1.000000 -17.500000
v 6.000001 0.000000 -17.500000
v 4.000001 0.000000 -17.500000
v 6.000001 0.000000 -29.500000
v 6.000001 1.000000 -29.500000
v 4.000001 1.000000 -29.500000
v 4.000001 0.000000 -29.500000
v 3.000000 1.000000 -1.500000
v 3.000000 0.000000 -1.500000
v 4.000000 0.000000 -0.500000
v 4.000000 1.000000 -0.500000
v 4.000000 0.000000 -1.500000
v 4.000000 1.000000 -1.500000
vn -1.0000 0.0000 -0.0000
vn 0.0000 0.0000 1.0000
vn 0.0000 0.0000 -1.0000
vn 1.0000 0.0000 0.0000
usemtl None
s off
f 12//1 15//1 13//1
f 14//2 8//2 11//2
f 4//3 7//3 6//3
f 23//4 24//4 22//4
f 9//1 6//1 7//1
f 10//2 12//2 13//2
f 14//4 17//4 3//4
f 15//2 17//2 18//2
f 12//1 16//1 15//1
f 14//2 3//2 8//2
f 4//3 5//3 7//3
f 9//1 10//1 6//1
f 10//2 9//2 12//2
f 23//4 22//4 21//4
f 14//4 18//4 17//4
f 15//2 16//2 17//2
f 11//4 19//4 20//4
f 19//3 23//3 20//3
f 11//4 8//4 19//4
f 22//2 2//2 21//2
f 1//2 21//2 2//2
f 19//3 24//3 23//3
