# Blender v2.79 (sub 0) OBJ File: ''
# www.blender.org
mtllib waitingroom_col.mtl
o Plane
v -5.000000 0.000000 3.375000
v 1.000000 0.000000 3.375000
v -5.000000 1.000000 -3.000000
v -5.000000 0.000000 -3.000000
v -5.000000 1.000000 3.375000
v 1.000000 1.000000 3.375000
v -3.000000 1.000000 -3.000000
v -3.000000 0.000000 -3.000000
v -3.000000 1.000000 -6.000000
v -3.000000 0.000000 -6.000000
v 1.000000 0.000000 6.250000
v 1.000000 1.000000 6.250000
v 3.000000 0.000000 6.250000
v 3.000000 1.000000 6.250000
v 3.000000 0.000000 3.375000
v 3.000000 1.000000 3.375000
v -1.000000 1.000000 -6.000000
v -1.000000 0.000000 -6.000000
v -1.000000 1.000000 -3.000000
v -1.000000 0.000000 -3.000000
v 6.000000 1.000000 -3.000000
v 6.000000 0.000000 -3.000000
v 6.000000 1.000000 1.000000
v 6.000000 0.000000 1.000000
v 9.875000 1.000000 1.000000
v 9.875000 0.000000 1.000000
v 11.250000 1.000000 1.000000
v 11.250000 0.000000 1.000000
v 25.500000 0.000000 3.375000
v 25.500000 1.000000 3.375000
v 25.500000 1.000000 1.000000
v 25.500000 0.000000 1.000000
v 9.875000 0.000000 -1.000000
v 9.875000 1.000000 -1.000000
v 11.250000 0.000000 -1.000000
v 11.250000 1.000000 -1.000000
v 0.000000 0.000000 -4.000000
v 4.000000 0.000000 -4.000000
v 0.000000 1.000000 -4.000000
v 4.000000 1.000000 -4.000000
v 0.000000 0.000000 -6.000000
v 4.000000 0.000000 -6.000000
v 0.000000 1.000000 -6.000000
v 4.000000 1.000000 -6.000000
v 2.125000 0.000000 -6.000000
v 2.125000 1.000000 -6.000000
v 0.875000 0.000000 -6.000000
v 0.875000 1.000000 -6.000000
v 2.125000 0.000000 -7.000000
v 2.125000 1.000000 -7.000000
v 0.875000 0.000000 -7.000000
v 0.875000 1.000000 -7.000000
v 0.050000 1.000000 -3.000000
v 0.050000 0.000000 -3.000000
v 3.917500 0.000000 -3.000000
v 3.917500 1.000000 -3.000000
v 3.917500 1.000000 -2.500000
v 0.050000 1.000000 -2.500000
v 0.050000 0.000000 -2.500000
v 3.917500 0.000000 -2.500000
vn 1.0000 0.0000 0.0000
vn 0.0000 0.0000 -1.0000
vn 0.0000 0.0000 1.0000
vn -1.0000 0.0000 0.0000
usemtl None
s off
f 5//1 1//1 4//1 3//1
f 2//2 1//2 5//2 6//2
f 3//3 4//3 8//3 7//3
f 7//1 8//1 10//1 9//1
f 2//1 6//1 12//1 11//1
f 56//3 55//3 22//3 21//3
f 13//4 14//4 16//4 15//4
f 17//4 18//4 20//4 19//4
f 21//4 22//4 24//4 23//4
f 23//3 24//3 26//3 25//3
f 38//4 40//4 44//4 42//4
f 16//2 30//2 29//2 15//2
f 27//3 28//3 32//3 31//3
f 38//2 37//2 39//2 40//2
f 28//4 27//4 36//4 35//4
f 25//1 26//1 33//1 34//1
f 39//1 37//1 41//1 43//1
f 42//3 44//3 46//3 45//3
f 43//3 41//3 47//3 48//3
f 48//1 47//1 51//1 52//1
f 45//4 46//4 50//4 49//4
f 19//3 20//3 54//3 53//3
f 53//4 54//4 59//4 58//4
f 58//3 59//3 60//3 57//3
f 55//1 56//1 57//1 60//1
