# Blender 4.0.2
# www.blender.org
mtllib workzone.mtl
o Scene
v -0.500000 0.000046 -0.499950 0.2157 0.1647 0.7647
v 0.500000 0.000046 -0.499950 0.2196 0.1686 0.7608
v 2.500000 0.000027 -0.500050 0.2196 0.1608 0.7568
v 1.500000 0.000027 -0.500050 0.2196 0.1608 0.7568
v -3.500000 -0.000063 0.499950 0.2118 0.1608 0.7568
v 4.500000 -0.000108 1.499850 0.2118 0.1608 0.7568
v -1.500000 0.000050 -0.500050 0.2157 0.1647 0.7647
v -0.500000 1.000023 -0.499975 0.4039 0.3804 0.7960
v -1.500000 1.000023 -0.499975 0.4039 0.3804 0.7960
v 3.500000 1.000023 0.500025 0.4039 0.3843 0.7921
v 3.500000 -0.000052 0.499950 0.2196 0.1608 0.7608
v -2.500000 1.000023 -0.499975 0.4039 0.3804 0.7960
v -2.500000 0.000050 -0.500050 0.2157 0.1647 0.7647
v -4.500000 -0.000120 1.499850 0.2157 0.1647 0.7647
v -4.500000 1.000023 1.500025 0.4039 0.3804 0.7960
v -1.500000 2.000023 -0.499975 1.0000 1.0000 1.0000
v 0.500000 1.000023 -0.499975 0.4039 0.3843 0.7921
v 1.500000 2.000023 -0.499975 1.0000 1.0000 1.0000
v 0.500000 2.000023 -0.499975 1.0000 1.0000 1.0000
v 1.500000 1.000023 -0.499975 0.4039 0.3804 0.7921
v 2.500000 2.000023 -0.499975 1.0000 1.0000 1.0000
v 2.500000 1.000023 -0.499975 0.4039 0.3804 0.7921
v 3.500000 2.000023 0.500025 1.0000 1.0000 1.0000
v 4.500000 2.000022 1.500025 1.0000 1.0000 1.0000
v 4.500000 1.000023 1.500025 0.4078 0.3843 0.7921
v -3.500000 2.000023 0.500025 1.0000 1.0000 1.0000
v -3.500000 1.000023 0.500025 0.4039 0.3804 0.7960
v -2.500000 2.000023 -0.499975 1.0000 1.0000 1.0000
v -2.500000 3.000023 -0.499975 1.0000 1.0000 1.0000
v -0.500000 2.000023 -0.499975 1.0000 1.0000 1.0000
v 1.500000 3.000023 -0.499975 1.0000 1.0000 1.0000
v -4.500000 2.000022 1.500025 1.0000 1.0000 1.0000
v -4.500000 3.000022 1.500025 1.0000 1.0000 1.0000
v -3.500000 4.000023 0.500025 1.0000 1.0000 1.0000
v -4.500000 4.000022 1.500025 1.0000 1.0000 1.0000
v -3.500000 3.000023 0.500025 1.0000 1.0000 1.0000
v -2.500000 4.000023 -0.499975 1.0000 1.0000 1.0000
v -1.500000 3.000023 -0.499975 1.0000 1.0000 1.0000
v -1.500000 4.000023 -0.499975 1.0000 1.0000 1.0000
v -0.500000 3.000023 -0.499975 1.0000 1.0000 1.0000
v 0.500000 4.000023 -0.499975 1.0000 1.0000 1.0000
v -0.500000 4.000023 -0.499975 1.0000 1.0000 1.0000
v 0.500000 3.000023 -0.499975 1.0000 1.0000 1.0000
v 1.500000 4.000023 -0.499975 1.0000 1.0000 1.0000
v 2.500000 3.000023 -0.499975 1.0000 1.0000 1.0000
v 2.500000 4.000023 -0.499975 1.0000 1.0000 1.0000
v 3.500000 3.000023 0.500025 1.0000 1.0000 1.0000
v 4.500000 4.000022 1.500025 1.0000 1.0000 1.0000
v 3.500000 4.000023 0.500025 1.0000 1.0000 1.0000
v 4.500000 3.000022 1.500025 1.0000 1.0000 1.0000
v -0.500000 0.000046 -0.499950 0.0000 0.0000 0.0000
v 0.500000 0.000046 -0.499950 0.0000 0.0000 0.0000
v 2.500000 0.000027 -0.500050 0.0000 0.0000 0.0000
v 1.500000 0.000027 -0.500050 0.0000 0.0000 0.0000
v -3.500000 -0.000063 0.499950 0.0000 0.0000 0.0000
v 4.500000 -0.000108 1.499850 0.0000 0.0000 0.0000
v -1.500000 0.000050 -0.500050 0.0000 0.0000 0.0000
v 3.500000 -0.000052 0.499950 0.0000 0.0000 0.0000
v -2.500000 0.000050 -0.500050 0.0000 0.0000 0.0000
v -4.500000 -0.000120 1.499850 0.0000 0.0000 0.0000
v -0.500000 0.000046 -0.499950 0.0000 0.0000 0.0000
v 0.500000 0.000046 -0.499950 0.0000 0.0000 0.0000
v 2.500000 0.000027 -0.500050 0.0000 0.0000 0.0000
v 1.500000 0.000027 -0.500050 0.0000 0.0000 0.0000
v -3.500000 -0.000063 0.499950 0.0000 0.0000 0.0000
v 4.500000 -0.000108 1.499850 0.0000 0.0000 0.0000
v -1.500000 0.000050 -0.500050 0.0000 0.0000 0.0000
v 3.500000 -0.000052 0.499950 0.0000 0.0000 0.0000
v -2.500000 0.000050 -0.500050 0.0000 0.0000 0.0000
v -4.500000 -0.000120 1.499850 0.0000 0.0000 0.0000
v -0.500000 0.000046 -0.499950 0.0000 0.0000 0.0000
v 0.500000 0.000046 -0.499950 0.0000 0.0000 0.0000
v 2.500000 0.000027 -0.500050 0.0000 0.0000 0.0000
v 1.500000 0.000027 -0.500050 0.0000 0.0000 0.0000
v -3.500000 -0.000063 0.499950 0.0000 0.0000 0.0000
v 4.500000 -0.000108 1.499850 0.0000 0.0000 0.0000
v -1.500000 0.000050 -0.500050 0.0000 0.0000 0.0000
v 3.500000 -0.000052 0.499950 0.0000 0.0000 0.0000
v -2.500000 0.000050 -0.500050 0.0000 0.0000 0.0000
v -4.500000 -0.000120 1.499850 0.0000 0.0000 0.0000
v -0.500000 0.000046 -0.499950 1.0000 1.0000 1.0000
v -0.500000 0.000146 -1.499950 1.0000 1.0000 1.0000
v -0.500000 0.000210 -2.499850 1.0000 1.0000 1.0000
v 0.500000 0.000146 -1.499950 1.0000 1.0000 1.0000
v 0.500000 0.000305 -3.499750 1.0000 1.0000 1.0000
v -0.500000 0.000305 -3.499750 1.0000 1.0000 1.0000
v 0.500000 0.000210 -2.499850 1.0000 1.0000 1.0000
v 0.500000 0.000046 -0.499950 1.0000 1.0000 1.0000
v 0.500000 -0.000447 4.499550 1.0000 1.0000 1.0000
v -0.500000 -0.000447 4.499550 1.0000 1.0000 1.0000
v -1.500000 -0.000050 0.499950 1.0000 1.0000 1.0000
v -1.500000 -0.000216 2.499750 1.0000 1.0000 1.0000
v -2.500000 -0.000216 2.499750 1.0000 1.0000 1.0000
v -1.500000 -0.000415 4.499550 1.0000 1.0000 1.0000
v -2.500000 -0.000511 5.499450 1.0000 1.0000 1.0000
v -1.500000 -0.000511 5.499450 1.0000 1.0000 1.0000
v 2.500000 0.000027 -0.500050 1.0000 1.0000 1.0000
v 1.500000 0.000027 -0.500050 1.0000 1.0000 1.0000
v 2.500000 -0.000073 0.499950 1.0000 1.0000 1.0000
v 2.500000 -0.000145 1.499850 1.0000 1.0000 1.0000
v 2.500000 -0.000253 2.499750 1.0000 1.0000 1.0000
v 1.500000 -0.000307 3.499650 1.0000 1.0000 1.0000
v 0.500000 -0.000046 0.499950 1.0000 1.0000 1.0000
v 0.500000 -0.000146 1.499850 1.0000 1.0000 1.0000
v 1.500000 -0.000073 0.499950 1.0000 1.0000 1.0000
v 1.500000 -0.000145 1.499850 1.0000 1.0000 1.0000
v 1.500000 -0.000253 2.499750 1.0000 1.0000 1.0000
v 0.500000 -0.000215 2.499750 1.0000 1.0000 1.0000
v 0.500000 -0.000322 3.499650 1.0000 1.0000 1.0000
v 1.500000 -0.000439 4.499550 1.0000 1.0000 1.0000
v 0.500000 -0.000543 5.499450 1.0000 1.0000 1.0000
v 1.500000 -0.000508 5.499450 1.0000 1.0000 1.0000
v -0.500000 -0.000543 5.499450 1.0000 1.0000 1.0000
v -0.500000 -0.000322 3.499650 1.0000 1.0000 1.0000
v -1.500000 -0.000312 3.499650 1.0000 1.0000 1.0000
v -0.500000 -0.000215 2.499750 1.0000 1.0000 1.0000
v -1.500000 -0.000150 1.499850 1.0000 1.0000 1.0000
v -0.500000 -0.000146 1.499850 1.0000 1.0000 1.0000
v -0.500000 -0.000046 0.499950 1.0000 1.0000 1.0000
v -3.500000 -0.000150 1.499850 1.0000 1.0000 1.0000
v -2.500000 -0.000050 0.499950 1.0000 1.0000 1.0000
v -2.500000 -0.000150 1.499850 1.0000 1.0000 1.0000
v -3.500000 -0.000332 3.499650 1.0000 1.0000 1.0000
v -2.500000 -0.000312 3.499650 1.0000 1.0000 1.0000
v -2.500000 -0.000415 4.499550 1.0000 1.0000 1.0000
v -3.500000 -0.000063 0.499950 1.0000 1.0000 1.0000
v -4.500000 -0.000063 0.499950 1.0000 1.0000 1.0000
v 2.500000 -0.000307 3.499650 1.0000 1.0000 1.0000
v 3.500000 -0.000312 3.499650 1.0000 1.0000 1.0000
v 2.500000 -0.000508 5.499450 1.0000 1.0000 1.0000
v 2.500000 -0.000439 4.499550 1.0000 1.0000 1.0000
v 4.500000 -0.000245 2.499650 1.0000 1.0000 1.0000
v 3.500000 -0.000226 2.499750 1.0000 1.0000 1.0000
v 3.500000 -0.000414 4.499550 1.0000 1.0000 1.0000
v 4.500000 -0.000345 3.499650 1.0000 1.0000 1.0000
v 4.500000 -0.000436 4.499550 1.0000 1.0000 1.0000
v 3.500000 -0.000511 5.499450 1.0000 1.0000 1.0000
v 4.500000 -0.000523 5.499450 1.0000 1.0000 1.0000
v 4.500000 -0.000108 1.499850 1.0000 1.0000 1.0000
v 3.500000 -0.000131 1.499850 1.0000 1.0000 1.0000
v -3.500000 -0.000226 2.499750 1.0000 1.0000 1.0000
v -4.500000 -0.000214 2.499750 1.0000 1.0000 1.0000
v -4.500000 -0.000310 3.499650 1.0000 1.0000 1.0000
v -4.500000 -0.000509 5.499450 1.0000 1.0000 1.0000
v -3.500000 -0.000413 4.499550 1.0000 1.0000 1.0000
v -4.500000 -0.000421 4.499550 1.0000 1.0000 1.0000
v -3.500000 -0.000509 5.499450 1.0000 1.0000 1.0000
v -1.500000 0.000050 -0.500050 1.0000 1.0000 1.0000
v 3.500000 -0.000052 0.499950 1.0000 1.0000 1.0000
v -2.500000 0.000050 -0.500050 1.0000 1.0000 1.0000
v -4.500000 -0.000120 1.499850 1.0000 1.0000 1.0000
v -3.500000 -0.000150 0.499850 1.0000 1.0000 1.0000
v -2.500000 -0.000150 0.499850 1.0000 1.0000 1.0000
v -3.500000 -0.000064 -0.500050 1.0000 1.0000 1.0000
v -2.500000 -0.000050 -0.500050 1.0000 1.0000 1.0000
v 3.500000 -0.000226 1.499750 1.0000 1.0000 1.0000
v 4.500000 -0.000108 0.499850 1.0000 1.0000 1.0000
v 3.500000 -0.000131 0.499850 1.0000 1.0000 1.0000
v 4.500000 -0.000245 1.499650 1.0000 1.0000 1.0000
v 2.500000 -0.000145 0.499850 1.0000 1.0000 1.0000
v 3.500000 -0.000052 -0.500050 1.0000 1.0000 1.0000
v 2.500000 -0.000073 -0.500050 1.0000 1.0000 1.0000
vn 0.3827 -0.0001 0.9239
vn -0.0000 -0.0000 1.0000
vn 0.3827 -0.0000 0.9239
vn -0.0000 -0.0001 1.0000
vn -0.3827 -0.0000 0.9239
vn -0.3827 -0.0001 0.9239
vn -0.0001 -0.0000 1.0000
vn -0.7071 -0.0000 0.7071
vn -0.7071 -0.0001 0.7071
vn 0.7071 -0.0001 0.7071
vn 0.7071 -0.0000 0.7071
vn -0.0000 1.0000 0.0001
vt 0.000000 0.333333
vt 0.333333 0.666667
vt 0.000000 0.666667
vt 0.333333 0.333333
vt 0.666667 0.666667
vt 0.666667 0.333333
vt 1.000000 1.000000
vt 0.666667 1.000000
vt 1.000000 0.666667
vt 0.333333 1.000000
vt 0.000000 1.000000
s 1
usemtl material0
f 13/1/1 9/2/2 12/3/3
f 13/1/1 7/4/2 9/2/2
f 4/1/4 22/2/5 20/3/2
f 4/1/4 3/4/6 22/2/5
f 2/4/2 20/5/2 17/2/2
f 2/4/2 4/6/4 20/5/2
f 7/4/2 8/5/2 9/2/2
f 7/4/2 1/6/7 8/5/2
f 3/4/6 10/5/8 22/2/5
f 3/4/6 11/6/9 10/5/8
f 5/4/10 12/5/3 27/2/11
f 5/4/10 13/6/1 12/5/3
f 11/1/9 25/2/8 10/3/8
f 11/1/9 6/4/9 25/2/8
f 14/1/10 27/2/11 15/3/10
f 14/1/10 5/4/10 27/2/11
f 9/5/2 30/7/2 16/8/2
f 9/5/2 8/9/2 30/7/2
f 12/5/3 16/7/2 28/8/3
f 12/5/3 9/9/2 16/7/2
f 17/5/2 18/7/2 19/8/2
f 17/5/2 20/9/2 18/7/2
f 20/5/2 21/7/5 18/8/2
f 20/5/2 22/9/5 21/7/5
f 22/5/5 23/7/8 21/8/5
f 22/5/5 10/9/8 23/7/8
f 10/5/8 24/7/8 23/8/8
f 10/5/8 25/9/8 24/7/8
f 15/5/10 26/7/11 32/8/11
f 15/5/10 27/9/11 26/7/11
f 27/5/11 28/7/3 26/8/11
f 27/5/11 12/9/3 28/7/3
f 16/5/2 40/7/2 38/8/2
f 16/5/2 30/9/2 40/7/2
f 28/5/3 38/7/2 29/8/3
f 28/5/3 16/9/2 38/7/2
f 30/5/2 43/7/2 40/8/2
f 30/5/2 19/9/2 43/7/2
f 19/5/2 31/7/2 43/8/2
f 19/5/2 18/9/2 31/7/2
f 18/5/2 45/7/5 31/8/2
f 18/5/2 21/9/5 45/7/5
f 21/5/5 47/7/8 45/8/5
f 21/5/5 23/9/8 47/7/8
f 23/5/8 50/7/8 47/8/8
f 23/5/8 24/9/8 50/7/8
f 26/5/11 29/7/3 36/8/11
f 26/5/11 28/9/3 29/7/3
f 32/5/11 36/7/11 33/8/11
f 32/5/11 26/9/11 36/7/11
f 33/5/11 34/7/11 35/8/11
f 33/5/11 36/9/11 34/7/11
f 36/5/11 37/7/3 34/8/11
f 36/5/11 29/9/3 37/7/3
f 29/5/3 39/7/2 37/8/3
f 29/5/3 38/9/2 39/7/2
f 38/5/2 42/7/2 39/8/2
f 38/5/2 40/9/2 42/7/2
f 40/5/2 41/7/2 42/8/2
f 40/5/2 43/9/2 41/7/2
f 43/5/2 44/7/2 41/8/2
f 43/5/2 31/9/2 44/7/2
f 31/5/2 46/7/5 44/8/2
f 31/5/2 45/9/5 46/7/5
f 45/5/5 49/7/8 46/8/5
f 45/5/5 47/9/8 49/7/8
f 47/5/8 48/7/8 49/8/8
f 47/5/8 50/9/8 48/7/8
f 81/3/12 84/10/12 82/11/12
f 81/3/12 88/2/12 84/10/12
f 82/3/12 87/10/12 83/11/12
f 82/3/12 84/2/12 87/10/12
f 83/3/12 85/10/12 86/11/12
f 83/3/12 87/2/12 85/10/12
f 119/3/12 88/10/12 81/11/12
f 119/3/12 103/2/12 88/10/12
f 118/3/12 103/10/12 119/11/12
f 118/3/12 104/2/12 103/10/12
f 116/3/12 104/10/12 118/11/12
f 116/3/12 108/2/12 104/10/12
f 114/3/12 108/10/12 116/11/12
f 114/3/12 109/2/12 108/10/12
f 90/3/12 109/10/12 114/11/12
f 90/3/12 89/2/12 109/10/12
f 113/3/12 89/10/12 90/11/12
f 113/3/12 111/2/12 89/10/12
f 121/3/12 148/10/12 150/11/12
f 121/3/12 91/2/12 148/10/12
f 122/3/12 91/10/12 121/11/12
f 122/3/12 117/2/12 91/10/12
f 93/3/12 117/10/12 122/11/12
f 93/3/12 92/2/12 117/10/12
f 124/3/12 92/10/12 93/11/12
f 124/3/12 115/2/12 92/10/12
f 125/3/12 115/10/12 124/11/12
f 125/3/12 94/2/12 115/10/12
f 95/3/12 94/10/12 125/11/12
f 95/3/12 96/2/12 94/10/12
f 105/3/12 97/10/12 98/11/12
f 105/3/12 99/2/12 97/10/12
f 106/3/12 99/10/12 105/11/12
f 106/3/12 100/2/12 99/10/12
f 107/3/12 100/10/12 106/11/12
f 107/3/12 101/2/12 100/10/12
f 102/3/12 101/10/12 107/11/12
f 102/3/12 128/2/12 101/10/12
f 110/3/12 128/10/12 102/11/12
f 110/3/12 131/2/12 128/10/12
f 112/3/12 131/10/12 110/11/12
f 112/3/12 130/2/12 131/10/12
f 103/2/12 98/8/12 88/10/12
f 103/2/12 105/5/12 98/8/12
f 104/2/12 105/8/12 103/10/12
f 104/2/12 106/5/12 105/8/12
f 108/2/12 106/8/12 104/10/12
f 108/2/12 107/5/12 106/8/12
f 109/2/12 107/8/12 108/10/12
f 109/2/12 102/5/12 107/8/12
f 89/2/12 102/8/12 109/10/12
f 89/2/12 110/5/12 102/8/12
f 111/2/12 110/8/12 89/10/12
f 111/2/12 112/5/12 110/8/12
f 96/2/12 90/8/12 94/10/12
f 96/2/12 113/5/12 90/8/12
f 94/2/12 114/8/12 115/10/12
f 94/2/12 90/5/12 114/8/12
f 115/2/12 116/8/12 92/10/12
f 115/2/12 114/5/12 116/8/12
f 92/2/12 118/8/12 117/10/12
f 92/2/12 116/5/12 118/8/12
f 117/2/12 119/8/12 91/10/12
f 117/2/12 118/5/12 119/8/12
f 91/2/12 81/8/12 148/10/12
f 91/2/12 119/5/12 81/8/12
f 120/2/12 121/8/12 126/10/12
f 120/2/12 122/5/12 121/8/12
f 141/2/12 122/8/12 120/10/12
f 141/2/12 93/5/12 122/8/12
f 123/2/12 93/8/12 141/10/12
f 123/2/12 124/5/12 93/8/12
f 145/2/12 124/8/12 123/10/12
f 145/2/12 125/5/12 124/8/12
f 147/2/12 125/8/12 145/10/12
f 147/2/12 95/5/12 125/8/12
f 100/2/12 149/8/12 99/10/12
f 100/2/12 140/5/12 149/8/12
f 101/2/12 140/8/12 100/10/12
f 101/2/12 133/5/12 140/8/12
f 128/2/12 133/8/12 101/10/12
f 128/2/12 129/5/12 133/8/12
f 131/2/12 129/8/12 128/10/12
f 131/2/12 134/5/12 129/8/12
f 130/2/12 134/8/12 131/10/12
f 130/2/12 137/5/12 134/8/12
f 151/2/12 120/5/12 126/8/12
f 129/3/12 132/10/12 133/11/12
f 129/3/12 135/2/12 132/10/12
f 134/3/12 135/10/12 129/11/12
f 134/3/12 136/2/12 135/10/12
f 137/3/12 136/10/12 134/11/12
f 137/3/12 138/2/12 136/10/12
f 133/3/12 139/10/12 140/11/12
f 133/3/12 132/2/12 139/10/12
f 151/2/12 126/8/12 127/10/12
f 142/3/12 120/10/12 151/11/12
f 142/3/12 141/2/12 120/10/12
f 143/3/12 141/10/12 142/11/12
f 143/3/12 123/2/12 141/10/12
f 146/3/12 123/10/12 143/11/12
f 146/3/12 145/2/12 123/10/12
f 144/3/12 145/10/12 146/11/12
f 144/3/12 147/2/12 145/10/12
f 152/2/12 155/8/12 154/10/12
f 152/2/12 153/5/12 155/8/12
f 156/3/12 157/10/12 158/11/12
f 156/3/12 159/2/12 157/10/12
f 160/2/12 161/8/12 162/10/12
f 160/2/12 158/5/12 161/8/12
l 53 54
l 53 58
l 59 57
l 61 67
l 65 69
l 65 70
l 73 74
l 73 78
l 79 77
l 64 62
l 66 68
l 51 57
l 55 59
l 55 60
l 63 64
l 63 68
l 69 67
l 71 77
l 75 79
l 75 80
l 54 52
l 56 58
l 74 72
l 76 78
