# Blender 4.0.2
# www.blender.org
mtllib workzone.mtl
o Scene
v -1.000000 0.000093 -0.999900 0.2157 0.1647 0.7647
v 1.000000 0.000093 -0.999900 0.2196 0.1686 0.7608
v 5.000000 0.000055 -1.000100 0.2196 0.1608 0.7568
v 3.000000 0.000055 -1.000100 0.2196 0.1608 0.7568
v -7.000000 -0.000127 0.999900 0.2118 0.1608 0.7568
v 9.000000 -0.000217 2.999700 0.2118 0.1608 0.7568
v -3.000000 0.000101 -1.000100 0.2157 0.1647 0.7647
v -1.000000 2.000046 -0.999950 0.4039 0.3804 0.7960
v -3.000000 2.000046 -0.999950 0.4039 0.3804 0.7960
v 7.000000 2.000046 1.000050 0.4039 0.3843 0.7921
v 7.000000 -0.000104 0.999900 0.2196 0.1608 0.7608
v -5.000000 2.000046 -0.999950 0.4039 0.3804 0.7960
v -5.000000 0.000101 -1.000100 0.2157 0.1647 0.7647
v -9.000000 -0.000241 2.999700 0.2157 0.1647 0.7647
v -9.000000 2.000045 3.000050 0.4039 0.3804 0.7960
v -3.000000 4.000046 -0.999949 1.0000 1.0000 1.0000
v 1.000000 2.000046 -0.999950 0.4039 0.3843 0.7921
v 3.000000 4.000046 -0.999949 1.0000 1.0000 1.0000
v 1.000000 4.000046 -0.999949 1.0000 1.0000 1.0000
v 3.000000 2.000046 -0.999950 0.4039 0.3804 0.7921
v 5.000000 4.000046 -0.999949 1.0000 1.0000 1.0000
v 5.000000 2.000046 -0.999950 0.4039 0.3804 0.7921
v 7.000000 4.000046 1.000051 1.0000 1.0000 1.0000
v 9.000000 4.000045 3.000051 1.0000 1.0000 1.0000
v 9.000000 2.000045 3.000050 0.4078 0.3843 0.7921
v -7.000000 4.000046 1.000051 1.0000 1.0000 1.0000
v -7.000000 2.000046 1.000050 0.4039 0.3804 0.7960
v -5.000000 4.000046 -0.999949 1.0000 1.0000 1.0000
v -5.000000 6.000046 -0.999949 1.0000 1.0000 1.0000
v -1.000000 4.000046 -0.999949 1.0000 1.0000 1.0000
v 3.000000 6.000046 -0.999949 1.0000 1.0000 1.0000
v -9.000000 4.000045 3.000051 1.0000 1.0000 1.0000
v -9.000000 6.000045 3.000051 1.0000 1.0000 1.0000
v -7.000000 8.000046 1.000051 1.0000 1.0000 1.0000
v -9.000000 8.000045 3.000051 1.0000 1.0000 1.0000
v -7.000000 6.000046 1.000051 1.0000 1.0000 1.0000
v -5.000000 8.000046 -0.999949 1.0000 1.0000 1.0000
v -3.000000 6.000046 -0.999949 1.0000 1.0000 1.0000
v -3.000000 8.000046 -0.999949 1.0000 1.0000 1.0000
v -1.000000 6.000046 -0.999949 1.0000 1.0000 1.0000
v 1.000000 8.000046 -0.999949 1.0000 1.0000 1.0000
v -1.000000 8.000046 -0.999949 1.0000 1.0000 1.0000
v 1.000000 6.000046 -0.999949 1.0000 1.0000 1.0000
v 3.000000 8.000046 -0.999949 1.0000 1.0000 1.0000
v 5.000000 6.000046 -0.999949 1.0000 1.0000 1.0000
v 5.000000 8.000046 -0.999949 1.0000 1.0000 1.0000
v 7.000000 6.000046 1.000051 1.0000 1.0000 1.0000
v 9.000000 8.000045 3.000051 1.0000 1.0000 1.0000
v 7.000000 8.000046 1.000051 1.0000 1.0000 1.0000
v 9.000000 6.000045 3.000051 1.0000 1.0000 1.0000
v -1.000000 0.000093 -0.999900 0.0000 0.0000 0.0000
v 1.000000 0.000093 -0.999900 0.0000 0.0000 0.0000
v 5.000000 0.000055 -1.000100 0.0000 0.0000 0.0000
v 3.000000 0.000055 -1.000100 0.0000 0.0000 0.0000
v -7.000000 -0.000127 0.999900 0.0000 0.0000 0.0000
v 9.000000 -0.000217 2.999700 0.0000 0.0000 0.0000
v -3.000000 0.000101 -1.000100 0.0000 0.0000 0.0000
v 7.000000 -0.000104 0.999900 0.0000 0.0000 0.0000
v -5.000000 0.000101 -1.000100 0.0000 0.0000 0.0000
v -9.000000 -0.000241 2.999700 0.0000 0.0000 0.0000
v -1.000000 0.000093 -0.999900 0.0000 0.0000 0.0000
v 1.000000 0.000093 -0.999900 0.0000 0.0000 0.0000
v 5.000000 0.000055 -1.000100 0.0000 0.0000 0.0000
v 3.000000 0.000055 -1.000100 0.0000 0.0000 0.0000
v -7.000000 -0.000127 0.999900 0.0000 0.0000 0.0000
v 9.000000 -0.000217 2.999700 0.0000 0.0000 0.0000
v -3.000000 0.000101 -1.000100 0.0000 0.0000 0.0000
v 7.000000 -0.000104 0.999900 0.0000 0.0000 0.0000
v -5.000000 0.000101 -1.000100 0.0000 0.0000 0.0000
v -9.000000 -0.000241 2.999700 0.0000 0.0000 0.0000
v -1.000000 0.000093 -0.999900 0.0000 0.0000 0.0000
v 1.000000 0.000093 -0.999900 0.0000 0.0000 0.0000
v 5.000000 0.000055 -1.000100 0.0000 0.0000 0.0000
v 3.000000 0.000055 -1.000100 0.0000 0.0000 0.0000
v -7.000000 -0.000127 0.999900 0.0000 0.0000 0.0000
v 9.000000 -0.000217 2.999700 0.0000 0.0000 0.0000
v -3.000000 0.000101 -1.000100 0.0000 0.0000 0.0000
v 7.000000 -0.000104 0.999900 0.0000 0.0000 0.0000
v -5.000000 0.000101 -1.000100 0.0000 0.0000 0.0000
v -9.000000 -0.000241 2.999700 0.0000 0.0000 0.0000
v -1.000000 0.000093 -0.999900 1.0000 1.0000 1.0000
v -1.000000 0.000293 -2.999900 1.0000 1.0000 1.0000
v -1.000000 0.000420 -4.999700 1.0000 1.0000 1.0000
v 1.000000 0.000293 -2.999900 1.0000 1.0000 1.0000
v 1.000000 0.000610 -6.999500 1.0000 1.0000 1.0000
v -1.000000 0.000610 -6.999500 1.0000 1.0000 1.0000
v 1.000000 0.000420 -4.999700 1.0000 1.0000 1.0000
v 1.000000 0.000093 -0.999900 1.0000 1.0000 1.0000
v 1.000000 -0.000894 8.999100 1.0000 1.0000 1.0000
v -1.000000 -0.000894 8.999100 1.0000 1.0000 1.0000
v -3.000000 -0.000100 0.999900 1.0000 1.0000 1.0000
v -3.000000 -0.000432 4.999500 1.0000 1.0000 1.0000
v -5.000000 -0.000432 4.999500 1.0000 1.0000 1.0000
v -3.000000 -0.000831 8.999100 1.0000 1.0000 1.0000
v -5.000000 -0.001022 10.998899 1.0000 1.0000 1.0000
v -3.000000 -0.001022 10.998899 1.0000 1.0000 1.0000
v 5.000000 0.000055 -1.000100 1.0000 1.0000 1.0000
v 3.000000 0.000055 -1.000100 1.0000 1.0000 1.0000
v 5.000000 -0.000146 0.999900 1.0000 1.0000 1.0000
v 5.000000 -0.000291 2.999700 1.0000 1.0000 1.0000
v 5.000000 -0.000506 4.999500 1.0000 1.0000 1.0000
v 3.000000 -0.000615 6.999300 1.0000 1.0000 1.0000
v 1.000000 -0.000093 0.999900 1.0000 1.0000 1.0000
v 1.000000 -0.000292 2.999700 1.0000 1.0000 1.0000
v 3.000000 -0.000146 0.999900 1.0000 1.0000 1.0000
v 3.000000 -0.000291 2.999700 1.0000 1.0000 1.0000
v 3.000000 -0.000506 4.999500 1.0000 1.0000 1.0000
v 1.000000 -0.000430 4.999500 1.0000 1.0000 1.0000
v 1.000000 -0.000644 6.999300 1.0000 1.0000 1.0000
v 3.000000 -0.000879 8.999100 1.0000 1.0000 1.0000
v 1.000000 -0.001086 10.998899 1.0000 1.0000 1.0000
v 3.000000 -0.001016 10.998899 1.0000 1.0000 1.0000
v -1.000000 -0.001086 10.998899 1.0000 1.0000 1.0000
v -1.000000 -0.000644 6.999300 1.0000 1.0000 1.0000
v -3.000000 -0.000625 6.999300 1.0000 1.0000 1.0000
v -1.000000 -0.000430 4.999500 1.0000 1.0000 1.0000
v -3.000000 -0.000300 2.999700 1.0000 1.0000 1.0000
v -1.000000 -0.000292 2.999700 1.0000 1.0000 1.0000
v -1.000000 -0.000093 0.999900 1.0000 1.0000 1.0000
v -7.000000 -0.000300 2.999700 1.0000 1.0000 1.0000
v -5.000000 -0.000100 0.999900 1.0000 1.0000 1.0000
v -5.000000 -0.000300 2.999700 1.0000 1.0000 1.0000
v -7.000000 -0.000665 6.999300 1.0000 1.0000 1.0000
v -5.000000 -0.000625 6.999300 1.0000 1.0000 1.0000
v -5.000000 -0.000831 8.999100 1.0000 1.0000 1.0000
v -7.000000 -0.000127 0.999900 1.0000 1.0000 1.0000
v -9.000000 -0.000127 0.999900 1.0000 1.0000 1.0000
v 5.000000 -0.000615 6.999300 1.0000 1.0000 1.0000
v 7.000000 -0.000625 6.999300 1.0000 1.0000 1.0000
v 5.000000 -0.001016 10.998899 1.0000 1.0000 1.0000
v 5.000000 -0.000879 8.999100 1.0000 1.0000 1.0000
v 9.000000 -0.000490 4.999300 1.0000 1.0000 1.0000
v 7.000000 -0.000453 4.999500 1.0000 1.0000 1.0000
v 7.000000 -0.000829 8.999100 1.0000 1.0000 1.0000
v 9.000000 -0.000690 6.999300 1.0000 1.0000 1.0000
v 9.000000 -0.000873 8.999100 1.0000 1.0000 1.0000
v 7.000000 -0.001022 10.998899 1.0000 1.0000 1.0000
v 9.000000 -0.001046 10.998899 1.0000 1.0000 1.0000
v 9.000000 -0.000217 2.999700 1.0000 1.0000 1.0000
v 7.000000 -0.000263 2.999700 1.0000 1.0000 1.0000
v -7.000000 -0.000452 4.999500 1.0000 1.0000 1.0000
v -9.000000 -0.000429 4.999500 1.0000 1.0000 1.0000
v -9.000000 -0.000620 6.999300 1.0000 1.0000 1.0000
v -9.000000 -0.001019 10.998899 1.0000 1.0000 1.0000
v -7.000000 -0.000826 8.999100 1.0000 1.0000 1.0000
v -9.000000 -0.000843 8.999100 1.0000 1.0000 1.0000
v -7.000000 -0.001018 10.998899 1.0000 1.0000 1.0000
v -3.000000 0.000101 -1.000100 1.0000 1.0000 1.0000
v 7.000000 -0.000104 0.999900 1.0000 1.0000 1.0000
v -5.000000 0.000101 -1.000100 1.0000 1.0000 1.0000
v -9.000000 -0.000241 2.999700 1.0000 1.0000 1.0000
v -7.000000 -0.000300 0.999700 1.0000 1.0000 1.0000
v -5.000000 -0.000300 0.999700 1.0000 1.0000 1.0000
v -7.000000 -0.000127 -1.000100 1.0000 1.0000 1.0000
v -5.000000 -0.000100 -1.000100 1.0000 1.0000 1.0000
v 7.000000 -0.000453 2.999500 1.0000 1.0000 1.0000
v 9.000000 -0.000217 0.999700 1.0000 1.0000 1.0000
v 7.000000 -0.000263 0.999700 1.0000 1.0000 1.0000
v 9.000000 -0.000490 2.999300 1.0000 1.0000 1.0000
v 5.000000 -0.000291 0.999700 1.0000 1.0000 1.0000
v 7.000000 -0.000104 -1.000100 1.0000 1.0000 1.0000
v 5.000000 -0.000146 -1.000100 1.0000 1.0000 1.0000
vn 0.3827 -0.0001 0.9239
vn -0.0000 -0.0000 1.0000
vn 0.3827 -0.0000 0.9239
vn -0.0000 -0.0001 1.0000
vn 0.0001 -0.0001 1.0000
vn -0.3827 -0.0000 0.9239
vn -0.3827 -0.0001 0.9239
vn 0.0001 -0.0000 1.0000
vn -0.0001 -0.0000 1.0000
vn -0.7071 -0.0000 0.7071
vn -0.7071 -0.0001 0.7071
vn 0.7071 -0.0001 0.7071
vn 0.7071 -0.0000 0.7071
vn -0.0000 1.0000 0.0001
vt 0.000000 0.333333
vt 0.333333 0.666667
vt 0.000000 0.666667
vt 0.333333 0.333333
vt 0.666667 0.666667
vt 0.666667 0.333333
vt 1.000000 1.000000
vt 0.666667 1.000000
vt 1.000000 0.666667
vt 0.333333 1.000000
vt 0.000000 1.000000
s 1
usemtl material0
f 13/1/1 9/2/2 12/3/3
f 13/1/1 7/4/4 9/2/2
f 4/1/5 22/2/6 20/3/2
f 4/1/5 3/4/7 22/2/6
f 2/4/8 20/5/2 17/2/2
f 2/4/8 4/6/5 20/5/2
f 7/4/4 8/5/2 9/2/2
f 7/4/4 1/6/9 8/5/2
f 3/4/7 10/5/10 22/2/6
f 3/4/7 11/6/11 10/5/10
f 5/4/12 12/5/3 27/2/13
f 5/4/12 13/6/1 12/5/3
f 11/1/11 25/2/10 10/3/10
f 11/1/11 6/4/11 25/2/10
f 14/1/12 27/2/13 15/3/12
f 14/1/12 5/4/12 27/2/13
f 9/5/2 30/7/2 16/8/2
f 9/5/2 8/9/2 30/7/2
f 12/5/3 16/7/2 28/8/3
f 12/5/3 9/9/2 16/7/2
f 17/5/2 18/7/2 19/8/2
f 17/5/2 20/9/2 18/7/2
f 20/5/2 21/7/6 18/8/2
f 20/5/2 22/9/6 21/7/6
f 22/5/6 23/7/10 21/8/6
f 22/5/6 10/9/10 23/7/10
f 10/5/10 24/7/10 23/8/10
f 10/5/10 25/9/10 24/7/10
f 15/5/12 26/7/13 32/8/13
f 15/5/12 27/9/13 26/7/13
f 27/5/13 28/7/3 26/8/13
f 27/5/13 12/9/3 28/7/3
f 16/5/2 40/7/2 38/8/2
f 16/5/2 30/9/2 40/7/2
f 28/5/3 38/7/2 29/8/3
f 28/5/3 16/9/2 38/7/2
f 30/5/2 43/7/2 40/8/2
f 30/5/2 19/9/2 43/7/2
f 19/5/2 31/7/2 43/8/2
f 19/5/2 18/9/2 31/7/2
f 18/5/2 45/7/6 31/8/2
f 18/5/2 21/9/6 45/7/6
f 21/5/6 47/7/10 45/8/6
f 21/5/6 23/9/10 47/7/10
f 23/5/10 50/7/10 47/8/10
f 23/5/10 24/9/10 50/7/10
f 26/5/13 29/7/3 36/8/13
f 26/5/13 28/9/3 29/7/3
f 32/5/13 36/7/13 33/8/13
f 32/5/13 26/9/13 36/7/13
f 33/5/13 34/7/13 35/8/13
f 33/5/13 36/9/13 34/7/13
f 36/5/13 37/7/3 34/8/13
f 36/5/13 29/9/3 37/7/3
f 29/5/3 39/7/2 37/8/3
f 29/5/3 38/9/2 39/7/2
f 38/5/2 42/7/2 39/8/2
f 38/5/2 40/9/2 42/7/2
f 40/5/2 41/7/2 42/8/2
f 40/5/2 43/9/2 41/7/2
f 43/5/2 44/7/2 41/8/2
f 43/5/2 31/9/2 44/7/2
f 31/5/2 46/7/6 44/8/2
f 31/5/2 45/9/6 46/7/6
f 45/5/6 49/7/10 46/8/6
f 45/5/6 47/9/10 49/7/10
f 47/5/10 48/7/10 49/8/10
f 47/5/10 50/9/10 48/7/10
f 81/3/14 84/10/14 82/11/14
f 81/3/14 88/2/14 84/10/14
f 82/3/14 87/10/14 83/11/14
f 82/3/14 84/2/14 87/10/14
f 83/3/14 85/10/14 86/11/14
f 83/3/14 87/2/14 85/10/14
f 119/3/14 88/10/14 81/11/14
f 119/3/14 103/2/14 88/10/14
f 118/3/14 103/10/14 119/11/14
f 118/3/14 104/2/14 103/10/14
f 116/3/14 104/10/14 118/11/14
f 116/3/14 108/2/14 104/10/14
f 114/3/14 108/10/14 116/11/14
f 114/3/14 109/2/14 108/10/14
f 90/3/14 109/10/14 114/11/14
f 90/3/14 89/2/14 109/10/14
f 113/3/14 89/10/14 90/11/14
f 113/3/14 111/2/14 89/10/14
f 121/3/14 148/10/14 150/11/14
f 121/3/14 91/2/14 148/10/14
f 122/3/14 91/10/14 121/11/14
f 122/3/14 117/2/14 91/10/14
f 93/3/14 117/10/14 122/11/14
f 93/3/14 92/2/14 117/10/14
f 124/3/14 92/10/14 93/11/14
f 124/3/14 115/2/14 92/10/14
f 125/3/14 115/10/14 124/11/14
f 125/3/14 94/2/14 115/10/14
f 95/3/14 94/10/14 125/11/14
f 95/3/14 96/2/14 94/10/14
f 105/3/14 97/10/14 98/11/14
f 105/3/14 99/2/14 97/10/14
f 106/3/14 99/10/14 105/11/14
f 106/3/14 100/2/14 99/10/14
f 107/3/14 100/10/14 106/11/14
f 107/3/14 101/2/14 100/10/14
f 102/3/14 101/10/14 107/11/14
f 102/3/14 128/2/14 101/10/14
f 110/3/14 128/10/14 102/11/14
f 110/3/14 131/2/14 128/10/14
f 112/3/14 131/10/14 110/11/14
f 112/3/14 130/2/14 131/10/14
f 103/2/14 98/8/14 88/10/14
f 103/2/14 105/5/14 98/8/14
f 104/2/14 105/8/14 103/10/14
f 104/2/14 106/5/14 105/8/14
f 108/2/14 106/8/14 104/10/14
f 108/2/14 107/5/14 106/8/14
f 109/2/14 107/8/14 108/10/14
f 109/2/14 102/5/14 107/8/14
f 89/2/14 102/8/14 109/10/14
f 89/2/14 110/5/14 102/8/14
f 111/2/14 110/8/14 89/10/14
f 111/2/14 112/5/14 110/8/14
f 96/2/14 90/8/14 94/10/14
f 96/2/14 113/5/14 90/8/14
f 94/2/14 114/8/14 115/10/14
f 94/2/14 90/5/14 114/8/14
f 115/2/14 116/8/14 92/10/14
f 115/2/14 114/5/14 116/8/14
f 92/2/14 118/8/14 117/10/14
f 92/2/14 116/5/14 118/8/14
f 117/2/14 119/8/14 91/10/14
f 117/2/14 118/5/14 119/8/14
f 91/2/14 81/8/14 148/10/14
f 91/2/14 119/5/14 81/8/14
f 120/2/14 121/8/14 126/10/14
f 120/2/14 122/5/14 121/8/14
f 141/2/14 122/8/14 120/10/14
f 141/2/14 93/5/14 122/8/14
f 123/2/14 93/8/14 141/10/14
f 123/2/14 124/5/14 93/8/14
f 145/2/14 124/8/14 123/10/14
f 145/2/14 125/5/14 124/8/14
f 147/2/14 125/8/14 145/10/14
f 147/2/14 95/5/14 125/8/14
f 100/2/14 149/8/14 99/10/14
f 100/2/14 140/5/14 149/8/14
f 101/2/14 140/8/14 100/10/14
f 101/2/14 133/5/14 140/8/14
f 128/2/14 133/8/14 101/10/14
f 128/2/14 129/5/14 133/8/14
f 131/2/14 129/8/14 128/10/14
f 131/2/14 134/5/14 129/8/14
f 130/2/14 134/8/14 131/10/14
f 130/2/14 137/5/14 134/8/14
f 151/2/14 120/5/14 126/8/14
f 129/3/14 132/10/14 133/11/14
f 129/3/14 135/2/14 132/10/14
f 134/3/14 135/10/14 129/11/14
f 134/3/14 136/2/14 135/10/14
f 137/3/14 136/10/14 134/11/14
f 137/3/14 138/2/14 136/10/14
f 133/3/14 139/10/14 140/11/14
f 133/3/14 132/2/14 139/10/14
f 151/2/14 126/8/14 127/10/14
f 142/3/14 120/10/14 151/11/14
f 142/3/14 141/2/14 120/10/14
f 143/3/14 141/10/14 142/11/14
f 143/3/14 123/2/14 141/10/14
f 146/3/14 123/10/14 143/11/14
f 146/3/14 145/2/14 123/10/14
f 144/3/14 145/10/14 146/11/14
f 144/3/14 147/2/14 145/10/14
f 152/2/14 155/8/14 154/10/14
f 152/2/14 153/5/14 155/8/14
f 156/3/14 157/10/14 158/11/14
f 156/3/14 159/2/14 157/10/14
f 160/2/14 161/8/14 162/10/14
f 160/2/14 158/5/14 161/8/14
l 53 54
l 53 58
l 51 57
l 55 60
l 55 59
l 59 57
l 56 58
l 54 52
l 63 64
l 63 68
l 61 67
l 65 70
l 65 69
l 69 67
l 66 68
l 64 62
l 73 74
l 73 78
l 71 77
l 75 80
l 75 79
l 79 77
l 76 78
l 74 72
