# Blender v2.79 (sub 0) OBJ File: ''
# www.blender.org
mtllib gift_plane2.mtl
o Cube.003_Cube.000
v 0.500000 0.000000 -1.000000
v -0.500000 0.000000 -1.000000
v 0.500000 1.000000 -1.000000
v 1.500000 0.000000 -1.000000
v 1.500000 1.000000 -1.000000
v 2.500000 0.000000 -1.000000
v 2.500000 1.000000 -1.000000
v 3.500000 0.000000 -1.000000
v 3.500000 1.000000 -1.000000
v 4.500000 0.000000 -1.000000
v 4.500000 1.000000 -1.000000
v 5.500000 0.000000 -1.000000
v 5.500000 1.000000 -1.000000
v 6.500000 0.000000 -1.000000
v 6.500000 1.000000 -1.000000
v 7.500000 0.000000 -1.000000
v 7.500000 1.000000 -1.000000
v 8.500000 0.000000 -1.000000
v 8.500000 1.000000 -1.000000
v -0.500000 1.000000 -1.000000
v -1.500000 1.000000 -1.000000
v -1.500000 0.000000 -1.000000
v -2.500000 0.000000 -1.000000
v -2.500000 1.000000 -1.000000
vt 0.125000 0.750000
vt 0.250000 0.750000
vt 0.250000 1.000000
vt 0.125000 1.000000
vt 0.125000 0.750000
vt 0.250000 0.750000
vt 0.250000 1.000000
vt 0.125000 1.000000
vt 0.125000 0.750000
vt 0.250000 0.750000
vt 0.250000 1.000000
vt 0.125000 1.000000
vt 0.125000 0.750000
vt 0.250000 0.750000
vt 0.250000 1.000000
vt 0.125000 1.000000
vt 0.125000 0.750000
vt 0.250000 0.750000
vt 0.250000 1.000000
vt 0.125000 1.000000
vt 0.125000 0.750000
vt 0.250000 0.750000
vt 0.250000 1.000000
vt 0.125000 1.000000
vt 0.125000 0.750000
vt 0.250000 0.750000
vt 0.250000 1.000000
vt 0.125000 1.000000
vt 0.125000 0.750000
vt 0.250000 0.750000
vt 0.250000 1.000000
vt 0.125000 1.000000
vt 0.125000 0.750000
vt 0.250000 0.750000
vt 0.250000 1.000000
vt 0.125000 1.000000
vt 0.125000 0.750000
vt 0.250000 0.750000
vt 0.250000 1.000000
vt 0.125000 1.000000
vt 0.125000 0.750000
vt 0.250000 0.750000
vt 0.250000 1.000000
vt 0.125000 1.000000
vn 0.0000 -0.0000 1.0000
usemtl None
s 1
f 2/1/1 1/2/1 3/3/1 20/4/1
f 1/5/1 4/6/1 5/7/1 3/8/1
f 4/9/1 6/10/1 7/11/1 5/12/1
f 6/13/1 8/14/1 9/15/1 7/16/1
f 8/17/1 10/18/1 11/19/1 9/20/1
f 10/21/1 12/22/1 13/23/1 11/24/1
f 12/25/1 14/26/1 15/27/1 13/28/1
f 14/29/1 16/30/1 17/31/1 15/32/1
f 16/33/1 18/34/1 19/35/1 17/36/1
f 22/37/1 2/38/1 20/39/1 21/40/1
f 23/41/1 22/42/1 21/43/1 24/44/1
