# Blender v2.79 (sub 0) OBJ File: ''
# www.blender.org
mtllib gift_plane3.mtl
o Plane.001_Plane.002
v 22.500000 0.000000 -5.000000
v 22.500000 0.000000 -6.000000
v 20.500000 0.000000 -7.000000
v 22.500000 1.000000 -5.000000
v 22.500000 1.000000 -6.000000
v 22.500000 0.000000 -7.000000
v 22.500000 1.000000 -7.000000
v 20.500000 1.000000 -5.000000
v 20.500000 1.000000 -6.000000
v 20.500000 1.000000 -7.000000
v 20.500000 0.000000 -5.000000
v 20.500000 0.000000 -6.000000
v 22.500000 0.000000 -5.000000
v 22.500000 0.000000 -6.000000
v 20.500000 0.000000 -7.000000
v 22.500000 1.000000 -5.000000
v 22.500000 1.000000 -6.000000
v 22.500000 0.000000 -7.000000
v 22.500000 1.000000 -7.000000
v 20.500000 1.000000 -5.000000
v 20.500000 1.000000 -6.000000
v 20.500000 1.000000 -7.000000
v 20.500000 0.000000 -5.000000
v 20.500000 0.000000 -6.000000
vt 0.500000 0.250000
vt 0.625000 0.250000
vt 0.625000 0.500000
vt 0.500000 0.500000
vt 0.750000 0.250000
vt 0.750000 0.500000
vt 0.625000 0.250000
vt 0.750000 0.250000
vt 0.750000 0.500000
vt 0.625000 0.500000
vt 0.500000 0.250000
vt 0.500000 0.500000
vt 0.500000 0.250000
vt 0.500000 0.500000
vt 0.625000 0.500000
vt 0.625000 0.250000
vt 0.750000 0.500000
vt 0.750000 0.250000
vt 0.625000 0.250000
vt 0.625000 0.500000
vt 0.750000 0.500000
vt 0.750000 0.250000
vt 0.500000 0.250000
vt 0.500000 0.500000
vn -1.0000 0.0000 0.0000
vn 1.0000 0.0000 0.0000
usemtl None.003
s 1
f 6/1/1 2/2/1 5/3/1 7/4/1
f 2/2/1 1/5/1 4/6/1 5/3/1
f 12/7/2 3/8/2 10/9/2 9/10/2
f 11/11/2 12/7/2 9/10/2 8/12/2
f 18/13/2 19/14/2 17/15/2 14/16/2
f 14/16/2 17/15/2 16/17/2 13/18/2
f 24/19/1 21/20/1 22/21/1 15/22/1
f 23/23/1 20/24/1 21/20/1 24/19/1
