# Blender v2.79 (sub 0) OBJ File: ''
# www.blender.org
mtllib gift_plane4.mtl
o Plane
v -1.000000 0.000000 0.000000
v 1.000000 0.000000 0.000000
v -1.000000 1.000000 0.000000
v 1.000000 1.000000 0.000000
v 0.000000 0.000000 0.000000
v 0.000000 1.000000 0.000000
vt 0.625000 0.500000
vt 0.750000 0.750000
vt 0.750000 0.500000
vt 0.625000 0.500000
vt 0.750000 0.750000
vt 0.750000 0.500000
vt 0.625000 0.750000
vt 0.625000 0.750000
vn 0.0000 0.0000 1.0000
usemtl None
s off
f 2/1/1 6/2/1 5/3/1
f 5/4/1 3/5/1 1/6/1
f 2/1/1 4/7/1 6/2/1
f 5/4/1 6/8/1 3/5/1
