# Blender v2.79 (sub 0) OBJ File: 'grass.blend'
# www.blender.org
mtllib grass.mtl
o Plane
v -14.499968 0.000000 14.499998
v -10.499967 0.000000 14.499998
v -14.499968 0.000000 10.499998
v -10.499967 0.000000 10.499998
v -14.499968 0.000000 10.499998
v -10.499967 0.000000 10.499998
v -14.499968 0.000000 6.499996
v -10.499967 0.000000 6.499996
v -14.499968 0.000000 6.499996
v -10.499967 0.000000 6.499996
v -14.499968 0.000000 2.500000
v -10.499967 0.000000 2.500000
v -14.499968 0.000000 2.500000
v -10.499967 0.000000 2.500000
v -14.499968 0.000000 -1.500000
v -10.499967 0.000000 -1.500000
v -14.499968 0.000000 -1.500000
v -10.499967 0.000000 -1.500000
v -14.499968 0.000000 -5.500000
v -10.499967 0.000000 -5.500000
v -14.499968 0.000000 -5.500000
v -10.499967 0.000000 -5.500000
v -14.499968 0.000000 -9.500000
v -10.499967 0.000000 -9.500000
v -14.499968 0.000000 -9.500000
v -10.499967 0.000000 -9.500000
v -14.499968 0.000000 -13.500000
v -10.499967 0.000000 -13.500000
v -14.499968 0.000000 -13.500000
v -10.499967 0.000000 -13.500000
v -14.499968 0.000000 -14.500000
v -10.499967 0.000000 -14.500000
v -10.499967 0.000000 14.499998
v -6.499974 0.000000 14.499998
v -10.499967 0.000000 10.499998
v -6.499974 0.000000 10.499998
v -10.499967 0.000000 10.499998
v -6.499974 0.000000 10.499998
v -10.499967 0.000000 6.499996
v -6.499974 0.000000 6.499996
v -10.499967 0.000000 6.499996
v -6.499974 0.000000 6.499996
v -10.499967 0.000000 2.500000
v -6.499974 0.000000 2.500000
v -10.499967 0.000000 2.500000
v -6.499974 0.000000 2.500000
v -10.499967 0.000000 -1.500000
v -6.499974 0.000000 -1.500000
v -10.499967 0.000000 -1.500000
v -6.499974 0.000000 -1.500000
v -10.499967 0.000000 -5.500000
v -6.499974 0.000000 -5.500000
v -10.499967 0.000000 -5.500000
v -6.499974 0.000000 -5.500000
v -10.499967 0.000000 -9.500000
v -6.499974 0.000000 -9.500000
v -10.499967 0.000000 -9.500000
v -6.499974 0.000000 -9.500000
v -10.499967 0.000000 -13.500000
v -6.499974 0.000000 -13.500000
v -10.499967 0.000000 -13.500000
v -6.499974 0.000000 -13.500000
v -10.499967 0.000000 -14.500000
v -6.499974 0.000000 -14.500000
v -6.499974 0.000000 14.499998
v -2.499974 0.000000 14.499998
v -6.499974 0.000000 10.499998
v -2.499974 0.000000 10.499998
v -6.499974 0.000000 10.499998
v -2.499974 0.000000 10.499998
v -6.499974 0.000000 6.499996
v -2.499974 0.000000 6.499996
v -6.499974 0.000000 6.499996
v -2.499974 0.000000 6.499996
v -6.499974 0.000000 2.500000
v -2.499974 0.000000 2.500000
v -6.499974 0.000000 2.500000
v -2.499974 0.000000 2.500000
v -6.499974 0.000000 -1.500000
v -2.499974 0.000000 -1.500000
v -6.499974 0.000000 -1.500000
v -2.499974 0.000000 -1.500000
v -6.499974 0.000000 -5.500000
v -2.499974 0.000000 -5.500000
v -6.499974 0.000000 -5.500000
v -2.499974 0.000000 -5.500000
v -6.499974 0.000000 -9.500000
v -2.499974 0.000000 -9.500000
v -6.499974 0.000000 -9.500000
v -2.499974 0.000000 -9.500000
v -6.499974 0.000000 -13.500000
v -2.499974 0.000000 -13.500000
v -6.499974 0.000000 -13.500000
v -2.499974 0.000000 -13.500000
v -6.499974 0.000000 -14.500000
v -2.499974 0.000000 -14.500000
v -2.499974 0.000000 14.499998
v 1.500027 0.000000 14.499998
v -2.499974 0.000000 10.499998
v 1.500027 0.000000 10.499998
v -2.499974 0.000000 10.499998
v 1.500027 0.000000 10.499998
v -2.499974 0.000000 6.499996
v 1.500027 0.000000 6.499996
v -2.499974 0.000000 6.499996
v 1.500027 0.000000 6.499996
v -2.499974 0.000000 2.500000
v 1.500027 0.000000 2.500000
v -2.499974 0.000000 2.500000
v 1.500027 0.000000 2.500000
v -2.499974 0.000000 -1.500000
v 1.500027 0.000000 -1.500000
v -2.499974 0.000000 -1.500000
v 1.500027 0.000000 -1.500000
v -2.499974 0.000000 -5.500000
v 1.500027 0.000000 -5.500000
v -2.499974 0.000000 -5.500000
v 1.500027 0.000000 -5.500000
v -2.499974 0.000000 -9.500000
v 1.500027 0.000000 -9.500000
v -2.499974 0.000000 -9.500000
v 1.500027 0.000000 -9.500000
v -2.499974 0.000000 -13.500000
v 1.500027 0.000000 -13.500000
v -2.499974 0.000000 -13.500000
v 1.500027 0.000000 -13.500000
v -2.499974 0.000000 -14.500000
v 1.500027 0.000000 -14.500000
v 1.500027 0.000000 14.499998
v 5.500027 0.000000 14.499998
v 1.500027 0.000000 10.499998
v 5.500027 0.000000 10.499998
v 1.500027 0.000000 10.499998
v 5.500027 0.000000 10.499998
v 1.500027 0.000000 6.499996
v 5.500027 0.000000 6.499996
v 1.500027 0.000000 6.499996
v 5.500027 0.000000 6.499996
v 1.500027 0.000000 2.500000
v 5.500027 0.000000 2.500000
v 1.500027 0.000000 2.500000
v 5.500027 0.000000 2.500000
v 1.500027 0.000000 -1.500000
v 5.500027 0.000000 -1.500000
v 1.500027 0.000000 -1.500000
v 5.500027 0.000000 -1.500000
v 1.500027 0.000000 -5.500000
v 5.500027 0.000000 -5.500000
v 1.500027 0.000000 -5.500000
v 5.500027 0.000000 -5.500000
v 1.500027 0.000000 -9.500000
v 5.500027 0.000000 -9.500000
v 1.500027 0.000000 -9.500000
v 5.500027 0.000000 -9.500000
v 1.500027 0.000000 -13.500000
v 5.500027 0.000000 -13.500000
v 1.500027 0.000000 -13.500000
v 5.500027 0.000000 -13.500000
v 1.500027 0.000000 -14.500000
v 5.500027 0.000000 -14.500000
v 5.500027 0.000000 14.499998
v 9.500028 0.000000 14.499998
v 5.500027 0.000000 10.499998
v 9.500028 0.000000 10.499998
v 5.500027 0.000000 10.499998
v 9.500028 0.000000 10.499998
v 5.500027 0.000000 6.499996
v 9.500028 0.000000 6.499996
v 5.500027 0.000000 6.499996
v 9.500028 0.000000 6.499996
v 5.500027 0.000000 2.500000
v 9.500028 0.000000 2.500000
v 5.500027 0.000000 2.500000
v 9.500028 0.000000 2.500000
v 5.500027 0.000000 -1.500000
v 9.500028 0.000000 -1.500000
v 5.500027 0.000000 -1.500000
v 9.500028 0.000000 -1.500000
v 5.500027 0.000000 -5.500000
v 9.500028 0.000000 -5.500000
v 5.500027 0.000000 -5.500000
v 9.500028 0.000000 -5.500000
v 5.500027 0.000000 -9.500000
v 9.500028 0.000000 -9.500000
v 5.500027 0.000000 -9.500000
v 9.500028 0.000000 -9.500000
v 5.500027 0.000000 -13.500000
v 9.500028 0.000000 -13.500000
v 5.500027 0.000000 -13.500000
v 9.500028 0.000000 -13.500000
v 5.500027 0.000000 -14.500000
v 9.500028 0.000000 -14.500000
v 9.500028 0.000000 14.499998
v 13.500029 0.000000 14.499998
v 9.500028 0.000000 10.499998
v 13.500029 0.000000 10.499998
v 9.500028 0.000000 10.499998
v 13.500029 0.000000 10.499998
v 9.500028 0.000000 6.499996
v 13.500029 0.000000 6.499996
v 9.500028 0.000000 6.499996
v 13.500029 0.000000 6.499996
v 9.500028 0.000000 2.500000
v 13.500029 0.000000 2.500000
v 9.500028 0.000000 2.500000
v 13.500029 0.000000 2.500000
v 9.500028 0.000000 -1.500000
v 13.500029 0.000000 -1.500000
v 9.500028 0.000000 -1.500000
v 13.500029 0.000000 -1.500000
v 9.500028 0.000000 -5.500000
v 13.500029 0.000000 -5.500000
v 9.500028 0.000000 -5.500000
v 13.500029 0.000000 -5.500000
v 9.500028 0.000000 -9.500000
v 13.500029 0.000000 -9.500000
v 9.500028 0.000000 -9.500000
v 13.500029 0.000000 -9.500000
v 9.500028 0.000000 -13.500000
v 13.500029 0.000000 -13.500000
v 9.500028 0.000000 -13.500000
v 13.500029 0.000000 -13.500000
v 9.500028 0.000000 -14.500000
v 13.500029 0.000000 -14.500000
v 13.500029 0.000000 14.499998
v 14.500029 0.000000 14.499998
v 13.500029 0.000000 10.499998
v 14.500029 0.000000 10.499998
v 13.500029 0.000000 10.499998
v 14.500029 0.000000 10.499998
v 13.500029 0.000000 6.499996
v 14.500029 0.000000 6.499996
v 13.500029 0.000000 6.499996
v 14.500029 0.000000 6.499996
v 13.500029 0.000000 2.500000
v 14.500029 0.000000 2.500000
v 13.500029 0.000000 2.500000
v 14.500029 0.000000 2.500000
v 13.500029 0.000000 -1.500000
v 14.500029 0.000000 -1.500000
v 13.500029 0.000000 -1.500000
v 14.500029 0.000000 -1.500000
v 13.500029 0.000000 -5.500000
v 14.500029 0.000000 -5.500000
v 13.500029 0.000000 -5.500000
v 14.500029 0.000000 -5.500000
v 13.500029 0.000000 -9.500000
v 14.500029 0.000000 -9.500000
v 13.500029 0.000000 -9.500000
v 14.500029 0.000000 -9.500000
v 13.500029 0.000000 -13.500000
v 14.500029 0.000000 -13.500000
v 13.500029 0.000000 -13.500000
v 14.500029 0.000000 -13.500000
v 13.500029 0.000000 -14.500000
v 14.500029 0.000000 -14.500000
vt -2.000000 -3.031250
vt -2.984375 -2.031250
vt -2.984375 -3.031250
vt -2.000000 -2.031250
vt -2.984375 -1.023438
vt -2.984375 -2.031250
vt -2.000000 -1.023438
vt -2.984375 -0.000000
vt -2.984375 -1.023438
vt -2.000000 -0.000000
vt -2.984375 1.000000
vt -2.984375 -0.000000
vt -2.000000 1.000000
vt -2.984375 1.992188
vt -2.984375 1.000000
vt -2.000000 1.992188
vt -2.984375 3.015625
vt -2.984375 1.992188
vt -2.000000 3.015625
vt -2.984375 4.007812
vt -2.984375 3.015625
vt -2.000000 4.007812
vt -2.984375 4.273438
vt -2.984375 4.007812
vt -0.992188 -3.031250
vt -2.000000 -2.031250
vt -2.000000 -3.031250
vt -0.992188 -2.031250
vt -2.000000 -1.023438
vt -2.000000 -2.031250
vt -0.992188 -1.023438
vt -2.000000 -0.000000
vt -2.000000 -1.023438
vt -0.992188 -0.000000
vt -2.000000 1.000000
vt -2.000000 -0.000000
vt -0.992188 1.000000
vt -2.000000 1.992188
vt -2.000000 1.000000
vt -0.992188 1.992188
vt -2.000000 3.015625
vt -2.000000 1.992188
vt -0.992188 3.015625
vt -2.000000 4.007812
vt -2.000000 3.015625
vt -0.992188 4.007812
vt -2.000000 4.273438
vt -2.000000 4.007812
vt -0.007812 -3.031250
vt -0.992188 -2.031250
vt -0.992188 -3.031250
vt -0.007812 -2.031250
vt -0.992188 -1.023438
vt -0.992188 -2.031250
vt -0.007812 -1.023438
vt -0.992188 -0.000000
vt -0.992188 -1.023438
vt -0.007812 -0.000000
vt -0.992188 1.000000
vt -0.992188 -0.000000
vt -0.007812 1.000000
vt -0.992188 1.992188
vt -0.992188 1.000000
vt -0.007812 1.992188
vt -0.992188 3.015625
vt -0.992188 1.992188
vt -0.007812 3.015625
vt -0.992188 4.007812
vt -0.992188 3.015625
vt -0.007812 4.007812
vt -0.992188 4.273438
vt -0.992188 4.007812
vt 1.000000 -3.031250
vt -0.007812 -2.031250
vt -0.007812 -3.031250
vt 1.000000 -2.031250
vt -0.007812 -1.023438
vt -0.007812 -2.031250
vt 1.000000 -1.023438
vt -0.007812 -0.000000
vt -0.007812 -1.023438
vt 1.000000 -0.000000
vt -0.007812 1.000000
vt -0.007812 -0.000000
vt 1.000000 1.000000
vt -0.007812 1.992188
vt -0.007812 1.000000
vt 1.000000 1.992188
vt -0.007812 3.015625
vt -0.007812 1.992188
vt 1.000000 3.015625
vt -0.007812 4.007812
vt -0.007812 3.015625
vt 1.000000 4.007812
vt -0.007812 4.273438
vt -0.007812 4.007812
vt 1.984375 -3.031250
vt 1.000000 -2.031250
vt 1.000000 -3.031250
vt 1.984375 -2.031250
vt 1.000000 -1.023438
vt 1.000000 -2.031250
vt 1.984375 -1.023438
vt 1.000000 -0.000000
vt 1.000000 -1.023438
vt 1.984375 -0.000000
vt 1.000000 1.000000
vt 1.000000 -0.000000
vt 1.984375 1.000000
vt 1.000000 1.992188
vt 1.000000 1.000000
vt 1.984375 1.992188
vt 1.000000 3.015625
vt 1.000000 1.992188
vt 1.984375 3.015625
vt 1.000000 4.007812
vt 1.000000 3.015625
vt 1.984375 4.007812
vt 1.000000 4.273438
vt 1.000000 4.007812
vt 2.960938 -3.031250
vt 1.984375 -2.031250
vt 1.984375 -3.031250
vt 2.960938 -2.031250
vt 1.984375 -1.023438
vt 1.984375 -2.031250
vt 2.960938 -1.023438
vt 1.984375 -0.000000
vt 1.984375 -1.023438
vt 2.960938 -0.000000
vt 1.984375 1.000000
vt 1.984375 -0.000000
vt 2.960938 1.000000
vt 1.984375 1.992188
vt 1.984375 1.000000
vt 2.960938 1.992188
vt 1.984375 3.015625
vt 1.984375 1.992188
vt 2.960938 3.015625
vt 1.984375 4.007812
vt 1.984375 3.015625
vt 2.960938 4.007812
vt 1.984375 4.273438
vt 1.984375 4.007812
vt 3.976562 -3.031250
vt 2.960938 -2.031250
vt 2.960938 -3.031250
vt 3.976562 -2.031250
vt 2.960938 -1.023438
vt 2.960938 -2.031250
vt 3.976562 -1.023438
vt 2.960938 -0.000000
vt 2.960938 -1.023438
vt 3.976562 -0.000000
vt 2.960938 1.000000
vt 2.960938 -0.000000
vt 3.976562 1.000000
vt 2.960938 1.992188
vt 2.960938 1.000000
vt 3.976562 1.992188
vt 2.960938 3.015625
vt 2.960938 1.992188
vt 3.976562 3.015625
vt 2.960938 4.007812
vt 2.960938 3.015625
vt 3.976562 4.007812
vt 2.960938 4.273438
vt 2.960938 4.007812
vt 4.218750 -3.031250
vt 3.976562 -2.031250
vt 3.976562 -3.031250
vt 4.218750 -2.031250
vt 3.976562 -1.023438
vt 3.976562 -2.031250
vt 4.218750 -1.023438
vt 3.976562 -0.000000
vt 3.976562 -1.023438
vt 4.218750 -0.000000
vt 3.976562 1.000000
vt 3.976562 -0.000000
vt 4.218750 1.000000
vt 3.976562 1.992188
vt 3.976562 1.000000
vt 4.218750 1.992188
vt 3.976562 3.015625
vt 3.976562 1.992188
vt 4.218750 3.015625
vt 3.976562 4.007812
vt 3.976562 3.015625
vt 4.218750 4.007812
vt 3.976562 4.273438
vt 3.976562 4.007812
vt -2.000000 -2.031250
vt -2.000000 -1.023438
vt -2.000000 -0.000000
vt -2.000000 1.000000
vt -2.000000 1.992188
vt -2.000000 3.015625
vt -2.000000 4.007812
vt -2.000000 4.273438
vt -0.992188 -2.031250
vt -0.992188 -1.023438
vt -0.992188 -0.000000
vt -0.992188 1.000000
vt -0.992188 1.992188
vt -0.992188 3.015625
vt -0.992188 4.007812
vt -0.992188 4.273438
vt -0.007812 -2.031250
vt -0.007812 -1.023438
vt -0.007812 -0.000000
vt -0.007812 1.000000
vt -0.007812 1.992188
vt -0.007812 3.015625
vt -0.007812 4.007812
vt -0.007812 4.273438
vt 1.000000 -2.031250
vt 1.000000 -1.023438
vt 1.000000 -0.000000
vt 1.000000 1.000000
vt 1.000000 1.992188
vt 1.000000 3.015625
vt 1.000000 4.007812
vt 1.000000 4.273438
vt 1.984375 -2.031250
vt 1.984375 -1.023438
vt 1.984375 -0.000000
vt 1.984375 1.000000
vt 1.984375 1.992188
vt 1.984375 3.015625
vt 1.984375 4.007812
vt 1.984375 4.273438
vt 2.960938 -2.031250
vt 2.960938 -1.023438
vt 2.960938 -0.000000
vt 2.960938 1.000000
vt 2.960938 1.992188
vt 2.960938 3.015625
vt 2.960938 4.007812
vt 2.960938 4.273438
vt 3.976562 -2.031250
vt 3.976562 -1.023438
vt 3.976562 -0.000000
vt 3.976562 1.000000
vt 3.976562 1.992188
vt 3.976562 3.015625
vt 3.976562 4.007812
vt 3.976562 4.273438
vt 4.218750 -2.031250
vt 4.218750 -1.023438
vt 4.218750 -0.000000
vt 4.218750 1.000000
vt 4.218750 1.992188
vt 4.218750 3.015625
vt 4.218750 4.007812
vt 4.218750 4.273438
vn 0.0000 1.0000 0.0000
usemtl None
s off
f 2/1/1 3/2/1 1/3/1
f 6/4/1 7/5/1 5/6/1
f 10/7/1 11/8/1 9/9/1
f 14/10/1 15/11/1 13/12/1
f 18/13/1 19/14/1 17/15/1
f 22/16/1 23/17/1 21/18/1
f 26/19/1 27/20/1 25/21/1
f 30/22/1 31/23/1 29/24/1
f 34/25/1 35/26/1 33/27/1
f 38/28/1 39/29/1 37/30/1
f 42/31/1 43/32/1 41/33/1
f 46/34/1 47/35/1 45/36/1
f 50/37/1 51/38/1 49/39/1
f 54/40/1 55/41/1 53/42/1
f 58/43/1 59/44/1 57/45/1
f 62/46/1 63/47/1 61/48/1
f 66/49/1 67/50/1 65/51/1
f 70/52/1 71/53/1 69/54/1
f 74/55/1 75/56/1 73/57/1
f 78/58/1 79/59/1 77/60/1
f 82/61/1 83/62/1 81/63/1
f 86/64/1 87/65/1 85/66/1
f 90/67/1 91/68/1 89/69/1
f 94/70/1 95/71/1 93/72/1
f 98/73/1 99/74/1 97/75/1
f 102/76/1 103/77/1 101/78/1
f 106/79/1 107/80/1 105/81/1
f 110/82/1 111/83/1 109/84/1
f 114/85/1 115/86/1 113/87/1
f 118/88/1 119/89/1 117/90/1
f 122/91/1 123/92/1 121/93/1
f 126/94/1 127/95/1 125/96/1
f 130/97/1 131/98/1 129/99/1
f 134/100/1 135/101/1 133/102/1
f 138/103/1 139/104/1 137/105/1
f 142/106/1 143/107/1 141/108/1
f 146/109/1 147/110/1 145/111/1
f 150/112/1 151/113/1 149/114/1
f 154/115/1 155/116/1 153/117/1
f 158/118/1 159/119/1 157/120/1
f 162/121/1 163/122/1 161/123/1
f 166/124/1 167/125/1 165/126/1
f 170/127/1 171/128/1 169/129/1
f 174/130/1 175/131/1 173/132/1
f 178/133/1 179/134/1 177/135/1
f 182/136/1 183/137/1 181/138/1
f 186/139/1 187/140/1 185/141/1
f 190/142/1 191/143/1 189/144/1
f 194/145/1 195/146/1 193/147/1
f 198/148/1 199/149/1 197/150/1
f 202/151/1 203/152/1 201/153/1
f 206/154/1 207/155/1 205/156/1
f 210/157/1 211/158/1 209/159/1
f 214/160/1 215/161/1 213/162/1
f 218/163/1 219/164/1 217/165/1
f 222/166/1 223/167/1 221/168/1
f 226/169/1 227/170/1 225/171/1
f 230/172/1 231/173/1 229/174/1
f 234/175/1 235/176/1 233/177/1
f 238/178/1 239/179/1 237/180/1
f 242/181/1 243/182/1 241/183/1
f 246/184/1 247/185/1 245/186/1
f 250/187/1 251/188/1 249/189/1
f 254/190/1 255/191/1 253/192/1
f 2/1/1 4/193/1 3/2/1
f 6/4/1 8/194/1 7/5/1
f 10/7/1 12/195/1 11/8/1
f 14/10/1 16/196/1 15/11/1
f 18/13/1 20/197/1 19/14/1
f 22/16/1 24/198/1 23/17/1
f 26/19/1 28/199/1 27/20/1
f 30/22/1 32/200/1 31/23/1
f 34/25/1 36/201/1 35/26/1
f 38/28/1 40/202/1 39/29/1
f 42/31/1 44/203/1 43/32/1
f 46/34/1 48/204/1 47/35/1
f 50/37/1 52/205/1 51/38/1
f 54/40/1 56/206/1 55/41/1
f 58/43/1 60/207/1 59/44/1
f 62/46/1 64/208/1 63/47/1
f 66/49/1 68/209/1 67/50/1
f 70/52/1 72/210/1 71/53/1
f 74/55/1 76/211/1 75/56/1
f 78/58/1 80/212/1 79/59/1
f 82/61/1 84/213/1 83/62/1
f 86/64/1 88/214/1 87/65/1
f 90/67/1 92/215/1 91/68/1
f 94/70/1 96/216/1 95/71/1
f 98/73/1 100/217/1 99/74/1
f 102/76/1 104/218/1 103/77/1
f 106/79/1 108/219/1 107/80/1
f 110/82/1 112/220/1 111/83/1
f 114/85/1 116/221/1 115/86/1
f 118/88/1 120/222/1 119/89/1
f 122/91/1 124/223/1 123/92/1
f 126/94/1 128/224/1 127/95/1
f 130/97/1 132/225/1 131/98/1
f 134/100/1 136/226/1 135/101/1
f 138/103/1 140/227/1 139/104/1
f 142/106/1 144/228/1 143/107/1
f 146/109/1 148/229/1 147/110/1
f 150/112/1 152/230/1 151/113/1
f 154/115/1 156/231/1 155/116/1
f 158/118/1 160/232/1 159/119/1
f 162/121/1 164/233/1 163/122/1
f 166/124/1 168/234/1 167/125/1
f 170/127/1 172/235/1 171/128/1
f 174/130/1 176/236/1 175/131/1
f 178/133/1 180/237/1 179/134/1
f 182/136/1 184/238/1 183/137/1
f 186/139/1 188/239/1 187/140/1
f 190/142/1 192/240/1 191/143/1
f 194/145/1 196/241/1 195/146/1
f 198/148/1 200/242/1 199/149/1
f 202/151/1 204/243/1 203/152/1
f 206/154/1 208/244/1 207/155/1
f 210/157/1 212/245/1 211/158/1
f 214/160/1 216/246/1 215/161/1
f 218/163/1 220/247/1 219/164/1
f 222/166/1 224/248/1 223/167/1
f 226/169/1 228/249/1 227/170/1
f 230/172/1 232/250/1 231/173/1
f 234/175/1 236/251/1 235/176/1
f 238/178/1 240/252/1 239/179/1
f 242/181/1 244/253/1 243/182/1
f 246/184/1 248/254/1 247/185/1
f 250/187/1 252/255/1 251/188/1
f 254/190/1 256/256/1 255/191/1
