# Blender 4.0.2
# www.blender.org
mtllib workzone.mtl
o Scene
v -0.500000 0.000046 -0.499950 0.6315 0.5764 0.9686
v 0.500000 0.000046 -0.499950 0.6315 0.5764 0.9686
v 2.500000 0.000027 -0.500050 0.6315 0.5764 0.9686
v 1.500000 0.000027 -0.500050 0.6315 0.5764 0.9686
v -3.500000 -0.000063 0.499950 0.6550 0.6000 0.9647
v 4.500000 -0.000108 1.499850 0.6550 0.6000 0.9647
v -1.500000 0.000050 -0.500050 0.6315 0.5764 0.9686
v -0.500000 1.000023 -0.499975 0.7020 0.6471 1.0000
v -1.500000 1.000023 -0.499975 0.6941 0.6393 1.0000
v 3.500000 1.000023 0.500025 0.6902 0.6393 0.9686
v 3.500000 -0.000052 0.499950 0.6550 0.6000 0.9647
v -2.500000 1.000023 -0.499975 0.6980 0.6432 1.0000
v -2.500000 0.000050 -0.500050 0.5882 0.5216 0.9804
v -4.500000 -0.000120 1.499850 0.6550 0.6000 0.9647
v -4.500000 1.000023 1.500025 0.6941 0.6432 0.9804
v -1.500000 2.000023 -0.499975 1.0000 1.0000 1.0000
v 0.500000 1.000023 -0.499975 0.6863 0.6315 0.9804
v 1.500000 2.000023 -0.499975 1.0000 1.0000 1.0000
v 0.500000 2.000023 -0.499975 1.0000 1.0000 1.0000
v 1.500000 1.000023 -0.499975 0.6863 0.6315 0.9804
v 2.500000 2.000023 -0.499975 1.0000 1.0000 1.0000
v 2.500000 1.000023 -0.499975 0.6863 0.6315 0.9804
v 3.500000 2.000023 0.500025 1.0000 1.0000 1.0000
v 4.500000 2.000023 1.500025 1.0000 1.0000 1.0000
v 4.500000 1.000023 1.500025 0.6824 0.6276 0.9686
v -3.500000 2.000023 0.500025 1.0000 1.0000 1.0000
v -3.500000 1.000023 0.500025 0.6941 0.6393 1.0000
v -2.500000 2.000023 -0.499975 1.0000 1.0000 1.0000
v -2.500000 3.000023 -0.499975 1.0000 1.0000 1.0000
v -0.500000 2.000023 -0.499975 1.0000 1.0000 1.0000
v 1.500000 3.000023 -0.499975 1.0000 1.0000 1.0000
v -4.500000 2.000023 1.500025 1.0000 1.0000 1.0000
v -4.500000 3.000023 1.500026 1.0000 1.0000 1.0000
v -3.500000 4.000023 0.500026 1.0000 1.0000 1.0000
v -4.500000 4.000022 1.500026 1.0000 1.0000 1.0000
v -3.500000 3.000023 0.500025 1.0000 1.0000 1.0000
v -2.500000 4.000023 -0.499974 1.0000 1.0000 1.0000
v -1.500000 3.000023 -0.499975 1.0000 1.0000 1.0000
v -1.500000 4.000023 -0.499974 1.0000 1.0000 1.0000
v -0.500000 3.000023 -0.499975 1.0000 1.0000 1.0000
v 0.500000 4.000023 -0.499974 1.0000 1.0000 1.0000
v -0.500000 4.000023 -0.499974 1.0000 1.0000 1.0000
v 0.500000 3.000023 -0.499975 1.0000 1.0000 1.0000
v 1.500000 4.000023 -0.499974 1.0000 1.0000 1.0000
v 2.500000 3.000023 -0.499975 1.0000 1.0000 1.0000
v 2.500000 4.000023 -0.499974 1.0000 1.0000 1.0000
v 3.500000 3.000023 0.500025 1.0000 1.0000 1.0000
v 4.500000 4.000022 1.500026 1.0000 1.0000 1.0000
v 3.500000 4.000023 0.500026 1.0000 1.0000 1.0000
v 4.500000 3.000023 1.500026 1.0000 1.0000 1.0000
v -0.500000 0.000046 -0.499950 1.0000 1.0000 1.0000
v -0.500000 0.000147 -1.499950 1.0000 1.0000 1.0000
v -0.500000 0.000210 -2.499850 1.0000 1.0000 1.0000
v 0.500000 0.000147 -1.499950 1.0000 1.0000 1.0000
v 0.500000 0.000305 -3.499750 1.0000 1.0000 1.0000
v -0.500000 0.000305 -3.499750 1.0000 1.0000 1.0000
v 0.500000 0.000210 -2.499850 1.0000 1.0000 1.0000
v 0.500000 0.000046 -0.499950 1.0000 1.0000 1.0000
v 0.500000 -0.000447 4.499550 1.0000 1.0000 1.0000
v -0.500000 -0.000447 4.499550 1.0000 1.0000 1.0000
v -1.500000 -0.000050 0.499950 1.0000 1.0000 1.0000
v -1.500000 -0.000216 2.499750 1.0000 1.0000 1.0000
v -2.500000 -0.000216 2.499750 1.0000 1.0000 1.0000
v -1.500000 -0.000415 4.499550 1.0000 1.0000 1.0000
v -2.500000 -0.000511 5.499450 1.0000 1.0000 1.0000
v -1.500000 -0.000511 5.499450 1.0000 1.0000 1.0000
v 2.500000 0.000027 -0.500050 1.0000 1.0000 1.0000
v 1.500000 0.000027 -0.500050 1.0000 1.0000 1.0000
v 2.500000 -0.000073 0.499950 1.0000 1.0000 1.0000
v 2.500000 -0.000146 1.499850 1.0000 1.0000 1.0000
v 2.500000 -0.000253 2.499750 1.0000 1.0000 1.0000
v 1.500000 -0.000308 3.499650 1.0000 1.0000 1.0000
v 0.500000 -0.000046 0.499950 1.0000 1.0000 1.0000
v 0.500000 -0.000146 1.499850 1.0000 1.0000 1.0000
v 1.500000 -0.000073 0.499950 1.0000 1.0000 1.0000
v 1.500000 -0.000146 1.499850 1.0000 1.0000 1.0000
v 1.500000 -0.000253 2.499750 1.0000 1.0000 1.0000
v 0.500000 -0.000215 2.499750 1.0000 1.0000 1.0000
v 0.500000 -0.000322 3.499650 1.0000 1.0000 1.0000
v 1.500000 -0.000439 4.499550 1.0000 1.0000 1.0000
v 0.500000 -0.000543 5.499450 1.0000 1.0000 1.0000
v 1.500000 -0.000508 5.499450 1.0000 1.0000 1.0000
v -0.500000 -0.000543 5.499450 1.0000 1.0000 1.0000
v -0.500000 -0.000322 3.499650 1.0000 1.0000 1.0000
v -1.500000 -0.000313 3.499650 1.0000 1.0000 1.0000
v -0.500000 -0.000215 2.499750 1.0000 1.0000 1.0000
v -1.500000 -0.000150 1.499850 1.0000 1.0000 1.0000
v -0.500000 -0.000146 1.499850 1.0000 1.0000 1.0000
v -0.500000 -0.000046 0.499950 1.0000 1.0000 1.0000
v -3.500000 -0.000150 1.499850 1.0000 1.0000 1.0000
v -2.500000 -0.000050 0.499950 1.0000 1.0000 1.0000
v -2.500000 -0.000150 1.499850 1.0000 1.0000 1.0000
v -3.500000 -0.000333 3.499650 1.0000 1.0000 1.0000
v -2.500000 -0.000313 3.499650 1.0000 1.0000 1.0000
v -2.500000 -0.000415 4.499550 1.0000 1.0000 1.0000
v -3.500000 -0.000063 0.499950 1.0000 1.0000 1.0000
v -4.500000 -0.000063 0.499950 1.0000 1.0000 1.0000
v 2.500000 -0.000308 3.499650 1.0000 1.0000 1.0000
v 3.500000 -0.000312 3.499650 1.0000 1.0000 1.0000
v 2.500000 -0.000508 5.499450 1.0000 1.0000 1.0000
v 2.500000 -0.000439 4.499550 1.0000 1.0000 1.0000
v 4.500000 -0.000245 2.499650 1.0000 1.0000 1.0000
v 3.500000 -0.000227 2.499750 1.0000 1.0000 1.0000
v 3.500000 -0.000415 4.499550 1.0000 1.0000 1.0000
v 4.500000 -0.000345 3.499650 1.0000 1.0000 1.0000
v 4.500000 -0.000437 4.499550 1.0000 1.0000 1.0000
v 3.500000 -0.000511 5.499450 1.0000 1.0000 1.0000
v 4.500000 -0.000523 5.499450 1.0000 1.0000 1.0000
v 4.500000 -0.000108 1.499850 1.0000 1.0000 1.0000
v 3.500000 -0.000131 1.499850 1.0000 1.0000 1.0000
v -3.500000 -0.000226 2.499750 1.0000 1.0000 1.0000
v -4.500000 -0.000215 2.499750 1.0000 1.0000 1.0000
v -4.500000 -0.000310 3.499650 1.0000 1.0000 1.0000
v -4.500000 -0.000509 5.499450 1.0000 1.0000 1.0000
v -3.500000 -0.000413 4.499550 1.0000 1.0000 1.0000
v -4.500000 -0.000421 4.499550 1.0000 1.0000 1.0000
v -3.500000 -0.000509 5.499450 1.0000 1.0000 1.0000
v -1.500000 0.000050 -0.500050 1.0000 1.0000 1.0000
v 3.500000 -0.000052 0.499950 1.0000 1.0000 1.0000
v -2.500000 0.000050 -0.500050 1.0000 1.0000 1.0000
v -4.500000 -0.000120 1.499850 1.0000 1.0000 1.0000
v -3.500000 -0.000150 0.499850 1.0000 1.0000 1.0000
v -2.500000 -0.000150 0.499850 1.0000 1.0000 1.0000
v -3.500000 -0.000063 -0.500050 1.0000 1.0000 1.0000
v -2.500000 -0.000050 -0.500050 1.0000 1.0000 1.0000
v 3.500000 -0.000227 1.499750 1.0000 1.0000 1.0000
v 4.500000 -0.000108 0.499850 1.0000 1.0000 1.0000
v 3.500000 -0.000131 0.499850 1.0000 1.0000 1.0000
v 4.500000 -0.000245 1.499650 1.0000 1.0000 1.0000
v 2.500000 -0.000146 0.499850 1.0000 1.0000 1.0000
v 3.500000 -0.000052 -0.500050 1.0000 1.0000 1.0000
v 2.500000 -0.000073 -0.500050 1.0000 1.0000 1.0000
vn 0.3827 -0.0001 0.9239
vn -0.0000 -0.0000 1.0000
vn 0.3827 -0.0000 0.9239
vn -0.0000 -0.0001 1.0000
vn 0.0001 -0.0001 1.0000
vn -0.3827 -0.0000 0.9239
vn -0.3827 -0.0001 0.9239
vn 0.0001 -0.0000 1.0000
vn -0.0001 -0.0000 1.0000
vn -0.7071 -0.0000 0.7071
vn -0.7071 -0.0001 0.7071
vn 0.7071 -0.0001 0.7071
vn 0.7071 -0.0000 0.7071
vn -0.0000 1.0000 0.0001
vt 0.000000 0.333333
vt 0.333333 0.666667
vt 0.000000 0.666667
vt 0.333333 0.333333
vt 0.666667 0.666667
vt 0.666667 0.333333
vt 1.000000 1.000000
vt 0.666667 1.000000
vt 1.000000 0.666667
vt 0.333333 1.000000
vt 0.000000 1.000000
s 1
usemtl material0
f 13/1/1 9/2/2 12/3/3
f 13/1/1 7/4/4 9/2/2
f 4/1/5 22/2/6 20/3/2
f 4/1/5 3/4/7 22/2/6
f 2/4/8 20/5/2 17/2/2
f 2/4/8 4/6/5 20/5/2
f 7/4/4 8/5/2 9/2/2
f 7/4/4 1/6/9 8/5/2
f 3/4/7 10/5/10 22/2/6
f 3/4/7 11/6/11 10/5/10
f 5/4/12 12/5/3 27/2/13
f 5/4/12 13/6/1 12/5/3
f 11/1/11 25/2/10 10/3/10
f 11/1/11 6/4/11 25/2/10
f 14/1/12 27/2/13 15/3/12
f 14/1/12 5/4/12 27/2/13
f 9/5/2 30/7/2 16/8/2
f 9/5/2 8/9/2 30/7/2
f 12/5/3 16/7/2 28/8/3
f 12/5/3 9/9/2 16/7/2
f 17/5/2 18/7/2 19/8/2
f 17/5/2 20/9/2 18/7/2
f 20/5/2 21/7/6 18/8/2
f 20/5/2 22/9/6 21/7/6
f 22/5/6 23/7/10 21/8/6
f 22/5/6 10/9/10 23/7/10
f 10/5/10 24/7/10 23/8/10
f 10/5/10 25/9/10 24/7/10
f 15/5/12 26/7/13 32/8/13
f 15/5/12 27/9/13 26/7/13
f 27/5/13 28/7/3 26/8/13
f 27/5/13 12/9/3 28/7/3
f 16/5/2 40/7/2 38/8/2
f 16/5/2 30/9/2 40/7/2
f 28/5/3 38/7/2 29/8/3
f 28/5/3 16/9/2 38/7/2
f 30/5/2 43/7/2 40/8/2
f 30/5/2 19/9/2 43/7/2
f 19/5/2 31/7/2 43/8/2
f 19/5/2 18/9/2 31/7/2
f 18/5/2 45/7/6 31/8/2
f 18/5/2 21/9/6 45/7/6
f 21/5/6 47/7/10 45/8/6
f 21/5/6 23/9/10 47/7/10
f 23/5/10 50/7/10 47/8/10
f 23/5/10 24/9/10 50/7/10
f 26/5/13 29/7/3 36/8/13
f 26/5/13 28/9/3 29/7/3
f 32/5/13 36/7/13 33/8/13
f 32/5/13 26/9/13 36/7/13
f 33/5/13 34/7/13 35/8/13
f 33/5/13 36/9/13 34/7/13
f 36/5/13 37/7/3 34/8/13
f 36/5/13 29/9/3 37/7/3
f 29/5/3 39/7/2 37/8/3
f 29/5/3 38/9/2 39/7/2
f 38/5/2 42/7/2 39/8/2
f 38/5/2 40/9/2 42/7/2
f 40/5/2 41/7/2 42/8/2
f 40/5/2 43/9/2 41/7/2
f 43/5/2 44/7/2 41/8/2
f 43/5/2 31/9/2 44/7/2
f 31/5/2 46/7/6 44/8/2
f 31/5/2 45/9/6 46/7/6
f 45/5/6 49/7/10 46/8/6
f 45/5/6 47/9/10 49/7/10
f 47/5/10 48/7/10 49/8/10
f 47/5/10 50/9/10 48/7/10
f 51/3/14 54/10/14 52/11/14
f 51/3/14 58/2/14 54/10/14
f 52/3/14 57/10/14 53/11/14
f 52/3/14 54/2/14 57/10/14
f 53/3/14 55/10/14 56/11/14
f 53/3/14 57/2/14 55/10/14
f 89/3/14 58/10/14 51/11/14
f 89/3/14 73/2/14 58/10/14
f 88/3/14 73/10/14 89/11/14
f 88/3/14 74/2/14 73/10/14
f 86/3/14 74/10/14 88/11/14
f 86/3/14 78/2/14 74/10/14
f 84/3/14 78/10/14 86/11/14
f 84/3/14 79/2/14 78/10/14
f 60/3/14 79/10/14 84/11/14
f 60/3/14 59/2/14 79/10/14
f 83/3/14 59/10/14 60/11/14
f 83/3/14 81/2/14 59/10/14
f 91/3/14 118/10/14 120/11/14
f 91/3/14 61/2/14 118/10/14
f 92/3/14 61/10/14 91/11/14
f 92/3/14 87/2/14 61/10/14
f 63/3/14 87/10/14 92/11/14
f 63/3/14 62/2/14 87/10/14
f 94/3/14 62/10/14 63/11/14
f 94/3/14 85/2/14 62/10/14
f 95/3/14 85/10/14 94/11/14
f 95/3/14 64/2/14 85/10/14
f 65/3/14 64/10/14 95/11/14
f 65/3/14 66/2/14 64/10/14
f 75/3/14 67/10/14 68/11/14
f 75/3/14 69/2/14 67/10/14
f 76/3/14 69/10/14 75/11/14
f 76/3/14 70/2/14 69/10/14
f 77/3/14 70/10/14 76/11/14
f 77/3/14 71/2/14 70/10/14
f 72/3/14 71/10/14 77/11/14
f 72/3/14 98/2/14 71/10/14
f 80/3/14 98/10/14 72/11/14
f 80/3/14 101/2/14 98/10/14
f 82/3/14 101/10/14 80/11/14
f 82/3/14 100/2/14 101/10/14
f 73/2/14 68/8/14 58/10/14
f 73/2/14 75/5/14 68/8/14
f 74/2/14 75/8/14 73/10/14
f 74/2/14 76/5/14 75/8/14
f 78/2/14 76/8/14 74/10/14
f 78/2/14 77/5/14 76/8/14
f 79/2/14 77/8/14 78/10/14
f 79/2/14 72/5/14 77/8/14
f 59/2/14 72/8/14 79/10/14
f 59/2/14 80/5/14 72/8/14
f 81/2/14 80/8/14 59/10/14
f 81/2/14 82/5/14 80/8/14
f 66/2/14 60/8/14 64/10/14
f 66/2/14 83/5/14 60/8/14
f 64/2/14 84/8/14 85/10/14
f 64/2/14 60/5/14 84/8/14
f 85/2/14 86/8/14 62/10/14
f 85/2/14 84/5/14 86/8/14
f 62/2/14 88/8/14 87/10/14
f 62/2/14 86/5/14 88/8/14
f 87/2/14 89/8/14 61/10/14
f 87/2/14 88/5/14 89/8/14
f 61/2/14 51/8/14 118/10/14
f 61/2/14 89/5/14 51/8/14
f 90/2/14 91/8/14 96/10/14
f 90/2/14 92/5/14 91/8/14
f 111/2/14 92/8/14 90/10/14
f 111/2/14 63/5/14 92/8/14
f 93/2/14 63/8/14 111/10/14
f 93/2/14 94/5/14 63/8/14
f 115/2/14 94/8/14 93/10/14
f 115/2/14 95/5/14 94/8/14
f 117/2/14 95/8/14 115/10/14
f 117/2/14 65/5/14 95/8/14
f 70/2/14 119/8/14 69/10/14
f 70/2/14 110/5/14 119/8/14
f 71/2/14 110/8/14 70/10/14
f 71/2/14 103/5/14 110/8/14
f 98/2/14 103/8/14 71/10/14
f 98/2/14 99/5/14 103/8/14
f 101/2/14 99/8/14 98/10/14
f 101/2/14 104/5/14 99/8/14
f 100/2/14 104/8/14 101/10/14
f 100/2/14 107/5/14 104/8/14
f 121/2/14 90/5/14 96/8/14
f 99/3/14 102/10/14 103/11/14
f 99/3/14 105/2/14 102/10/14
f 104/3/14 105/10/14 99/11/14
f 104/3/14 106/2/14 105/10/14
f 107/3/14 106/10/14 104/11/14
f 107/3/14 108/2/14 106/10/14
f 103/3/14 109/10/14 110/11/14
f 103/3/14 102/2/14 109/10/14
f 121/2/14 96/8/14 97/10/14
f 112/3/14 90/10/14 121/11/14
f 112/3/14 111/2/14 90/10/14
f 113/3/14 111/10/14 112/11/14
f 113/3/14 93/2/14 111/10/14
f 116/3/14 93/10/14 113/11/14
f 116/3/14 115/2/14 93/10/14
f 114/3/14 115/10/14 116/11/14
f 114/3/14 117/2/14 115/10/14
f 122/2/14 125/8/14 124/10/14
f 122/2/14 123/5/14 125/8/14
f 126/3/14 127/10/14 128/11/14
f 126/3/14 129/2/14 127/10/14
f 130/2/14 131/8/14 132/10/14
f 130/2/14 128/5/14 131/8/14
