# Blender v2.92.0 OBJ File: ''
# www.blender.org
mtllib corner-room.mtl
o Cube_Cube.003
v -1.000000 -1.000000 1.000000
v -2.000000 0.000000 2.000000
v -4.000000 0.000000 1.000000
v -4.000000 -1.000000 1.000000
v -3.000000 -1.000000 1.000000
v -3.000000 0.000000 2.000000
v -2.000000 -1.000000 1.000000
v 0.000000 0.000000 -1.000000
v 1.000000 -1.000000 -1.000000
v -1.000000 -1.000000 -1.000000
v 2.000000 2.000000 3.000000
v 0.000000 0.000000 0.000000
v -1.000000 2.000000 0.000000
v -4.000000 0.000000 2.000000
v -1.000000 0.000000 -1.000000
v 0.000000 -1.000000 -1.000000
v 3.000000 0.000000 2.000000
v 3.000000 0.000000 1.000000
v 4.000000 0.000000 1.000000
v 1.000000 0.000000 0.000000
v -1.000000 0.000000 0.000000
v 1.000000 2.000000 3.000000
v 1.000000 0.000000 -2.000000
v 2.000000 0.000000 3.000000
v 2.000000 -1.000000 -3.000000
v 1.000000 0.000000 2.000000
v 0.000000 0.000000 1.000000
v 2.000000 0.000000 -3.000000
v 0.000000 0.000000 2.000000
v -1.000000 0.000000 2.000000
v 1.000000 0.000000 1.000000
v 1.000000 -1.000000 -4.000000
v -1.000000 0.000000 3.000000
v -1.000000 1.000000 2.000000
v 2.000000 -1.000000 -2.000000
v 1.000000 0.000000 -3.000000
v -1.000000 1.000000 -1.000000
v -1.000000 1.000000 1.000000
v 2.000000 -1.000000 -4.000000
v -1.000000 1.000000 0.000000
v -1.000000 2.000000 1.000000
v -1.000000 2.000000 -1.000000
v 0.000000 1.000000 3.000000
v -1.000000 1.000000 3.000000
v -1.000000 2.000000 2.000000
v -1.000000 2.000000 3.000000
v 1.000000 -1.000000 -2.000000
v 2.000000 0.000000 -4.000000
v 1.000000 0.000000 -1.000000
v 1.000000 -1.000000 -3.000000
v 1.000000 0.000000 -4.000000
v 2.000000 -1.000000 -1.000000
v 0.000000 0.000000 3.000000
v 2.000000 0.000000 -2.000000
v 1.000000 0.000000 3.000000
v 2.000000 1.000000 3.000000
v 3.000000 1.000000 3.000000
v 2.000000 0.000000 1.000000
v 1.000000 1.000000 3.000000
v 0.000000 2.000000 3.000000
v 3.000000 0.000000 0.000000
v 2.000000 0.000000 0.000000
v 3.000000 0.000000 -1.000000
v 2.000000 0.000000 -1.000000
v 2.000000 0.000000 2.000000
v 3.000000 2.000000 3.000000
v 4.000000 0.000000 0.000000
v 4.000000 0.000000 2.000000
v 4.000000 0.000000 2.000544
v 3.000000 0.000000 3.000000
v 4.000000 2.000000 2.000544
v 4.000000 0.000000 1.000544
v 4.000000 1.000000 2.000544
v 4.000000 1.000000 0.000544
v 4.000000 0.000000 0.000544
v 4.000000 2.000000 1.000544
v 4.000000 2.000000 0.000544
v 3.000000 -1.000000 -1.000000
v 4.000000 -1.000000 0.000000
v 4.000000 1.000000 1.000544
v -1.000000 0.000000 1.000000
v -3.000000 0.000000 1.000000
v -2.000000 0.000000 1.000000
vt 0.857254 0.714397
vt 0.999888 0.714397
vt 0.999888 0.857031
vt 0.857254 0.857031
vt 0.285826 0.571540
vt 0.428460 0.571540
vt 0.428460 0.714174
vt 0.285826 0.714174
vt 0.285826 0.571540
vt 0.428460 0.571540
vt 0.428460 0.714174
vt 0.285826 0.714174
vt 0.857254 0.714397
vt 0.999888 0.714397
vt 0.999888 0.857031
vt 0.857254 0.857031
vt 0.285826 0.571540
vt 0.428460 0.571540
vt 0.428460 0.714174
vt 0.285826 0.714174
vt 0.857254 0.714397
vt 0.999888 0.714397
vt 0.999888 0.857031
vt 0.857254 0.857031
vt 0.857254 0.714397
vt 0.999888 0.714397
vt 0.999888 0.857031
vt 0.857254 0.857031
vt 0.857254 0.714397
vt 0.999888 0.714397
vt 0.999888 0.857031
vt 0.857254 0.857031
vt 0.857254 0.714397
vt 0.999888 0.714397
vt 0.999888 0.857031
vt 0.857254 0.857031
vt 0.857254 0.714397
vt 0.999888 0.714397
vt 0.999888 0.857031
vt 0.857254 0.857031
vt 0.285826 0.571540
vt 0.428460 0.571540
vt 0.428460 0.714174
vt 0.285826 0.714174
vt 0.285826 0.571540
vt 0.428460 0.571540
vt 0.428460 0.714174
vt 0.285826 0.714174
vt 0.000112 0.857254
vt 0.142746 0.857254
vt 0.142746 0.999888
vt 0.000112 0.999888
vt 0.999888 0.714397
vt 0.999888 0.857031
vt 0.857254 0.857031
vt 0.857254 0.714397
vt 0.999888 0.714397
vt 0.999888 0.857031
vt 0.857254 0.714397
vt 0.999888 0.714397
vt 0.999888 0.857031
vt 0.857254 0.714397
vt 0.999888 0.714397
vt 0.999888 0.857031
vt 0.857254 0.857031
vt 0.857254 0.714397
vt 0.999888 0.714397
vt 0.999888 0.857031
vt 0.857254 0.857031
vt 0.857254 0.714397
vt 0.999888 0.714397
vt 0.999888 0.857031
vt 0.857254 0.714397
vt 0.999888 0.714397
vt 0.857254 0.714397
vt 0.999888 0.714397
vt 0.999888 0.857031
vt 0.857254 0.857031
vt 0.714397 0.857254
vt 0.857031 0.857254
vt 0.857031 0.999888
vt 0.714397 0.999888
vt 0.714397 0.857254
vt 0.857031 0.857254
vt 0.857031 0.999888
vt 0.714397 0.999888
vt 0.000112 0.857254
vt 0.142746 0.857254
vt 0.142746 0.999888
vt 0.000112 0.999888
vt 0.000112 0.857254
vt 0.142746 0.857254
vt 0.142746 0.999888
vt 0.000112 0.999888
vt 0.714397 0.857254
vt 0.857031 0.857254
vt 0.857031 0.999888
vt 0.714397 0.999888
vt 0.714397 0.857254
vt 0.857031 0.857254
vt 0.857031 0.999888
vt 0.714397 0.999888
vt 0.000112 0.857254
vt 0.142746 0.857254
vt 0.142746 0.999888
vt 0.000112 0.999888
vt 0.714397 0.857254
vt 0.857031 0.857254
vt 0.857031 0.999888
vt 0.714397 0.999888
vt 0.714397 0.857254
vt 0.857031 0.857254
vt 0.714397 0.999888
vt 0.714397 0.857254
vt 0.857031 0.857254
vt 0.857031 0.999888
vt 0.714397 0.857254
vt 0.857031 0.857254
vt 0.714397 0.999888
vt 0.714397 0.857254
vt 0.857031 0.857254
vt 0.857031 0.999888
vt 0.714397 0.857254
vt 0.857031 0.857254
vt 0.857031 0.999888
vt 0.714397 0.999888
vt 0.714397 0.857254
vt 0.857031 0.857254
vt 0.857031 0.999888
vt 0.714397 0.999888
vt 0.714397 0.857254
vt 0.857031 0.857254
vt 0.857031 0.999888
vt 0.714397 0.999888
vt 0.714397 0.857254
vt 0.857031 0.857254
vt 0.857031 0.999888
vt 0.714397 0.999888
vt 0.000112 0.857254
vt 0.142746 0.857254
vt 0.142746 0.999888
vt 0.000112 0.999888
vt 0.714397 0.142969
vt 0.857031 0.142969
vt 0.857031 0.285603
vt 0.714397 0.285603
vt 0.857254 0.142969
vt 0.999888 0.142969
vt 0.999888 0.285603
vt 0.857254 0.285603
vt 0.714397 0.285826
vt 0.857031 0.285826
vt 0.857031 0.428460
vt 0.714397 0.428460
vt 0.857254 0.285826
vt 0.999888 0.285826
vt 0.999888 0.428460
vt 0.857254 0.428460
vt 0.285826 0.571540
vt 0.428460 0.571540
vt 0.428460 0.714174
vt 0.285826 0.714174
vt 0.857254 0.714397
vt 0.999888 0.714397
vt 0.999888 0.857031
vt 0.857254 0.857031
vt 0.857254 0.714397
vt 0.999888 0.714397
vt 0.999888 0.857031
vt 0.857254 0.857031
vt 0.857254 0.714397
vt 0.999888 0.714397
vt 0.999888 0.857031
vt 0.857254 0.857031
vt 0.857254 0.714397
vt 0.999888 0.714397
vt 0.999888 0.857031
vt 0.857254 0.857031
vt 0.000112 0.857254
vt 0.142746 0.857254
vt 0.142746 0.999888
vt 0.000112 0.999888
vt 0.714397 0.857254
vt 0.857031 0.857254
vt 0.857031 0.999888
vt 0.714397 0.999888
vt 0.857254 0.857031
vt 0.999888 0.714397
vt 0.857254 0.714397
vt 0.857254 0.857031
vt 0.857254 0.714397
vt 0.999888 0.714397
vt 0.857254 0.857031
vt 0.857254 0.714397
vt 0.999888 0.857031
vt 0.142969 0.857254
vt 0.285603 0.857254
vt 0.285603 0.999888
vt 0.142969 0.999888
vt 0.714397 0.857254
vt 0.857031 0.857254
vt 0.857031 0.999888
vt 0.714397 0.999888
vt 0.714397 0.857254
vt 0.857031 0.857254
vt 0.857031 0.999888
vt 0.714397 0.999888
vt 0.714397 0.857254
vt 0.857031 0.857254
vt 0.857031 0.999888
vt 0.714397 0.999888
vt 0.000112 0.857254
vt 0.142746 0.857254
vt 0.142746 0.999888
vt 0.000112 0.999888
vt 0.000112 0.857254
vt 0.142746 0.857254
vt 0.142746 0.999888
vt 0.000112 0.999888
vt 0.285826 0.571540
vt 0.428460 0.571540
vt 0.428460 0.714174
vt 0.285826 0.714174
vn 0.0000 1.0000 0.0000
vn 0.0000 0.0000 -1.0000
vn 1.0000 0.0000 0.0000
vn -1.0000 0.0000 0.0000
vn -0.7069 0.0000 -0.7073
vn 0.7071 0.0000 -0.7071
usemtl corner-room
s off
f 3/1/1 14/2/1 6/3/1 82/4/1
f 7/5/2 5/6/2 82/7/2 83/8/2
f 1/9/2 7/10/2 83/11/2 81/12/2
f 82/13/1 6/14/1 2/15/1 83/16/1
f 5/17/2 4/18/2 3/19/2 82/20/2
f 83/21/1 2/22/1 30/23/1 81/24/1
f 20/25/1 12/26/1 27/27/1 31/28/1
f 12/29/1 21/30/1 81/31/1 27/32/1
f 8/33/1 15/34/1 21/35/1 12/36/1
f 49/37/1 8/38/1 12/39/1 20/40/1
f 9/41/2 16/42/2 8/43/2 49/44/2
f 16/45/2 10/46/2 15/47/2 8/48/2
f 49/49/1 64/50/1 54/51/1 23/52/1
f 20/25/1 62/53/1 64/54/1 49/55/1
f 31/56/1 58/57/1 62/58/1 20/40/1
f 26/59/1 65/60/1 58/61/1 31/28/1
f 55/62/1 24/63/1 65/64/1 26/65/1
f 53/66/1 55/67/1 26/68/1 29/69/1
f 29/70/1 26/71/1 31/72/1 27/32/1
f 30/73/1 29/74/1 27/27/1 81/24/1
f 33/75/1 53/76/1 29/77/1 30/78/1
f 54/79/1 28/80/1 36/81/1 23/82/1
f 28/83/1 48/84/1 51/85/1 36/86/1
f 21/87/3 15/88/3 37/89/3 40/90/3
f 81/91/3 21/92/3 40/93/3 38/94/3
f 38/95/3 40/96/3 13/97/3 41/98/3
f 40/99/3 37/100/3 42/101/3 13/102/3
f 33/103/3 30/104/3 34/105/3 44/106/3
f 44/107/3 34/108/3 45/109/3 46/110/3
f 39/111/2 32/112/2 51/85/2 48/113/2
f 47/114/4 9/115/4 49/116/4 23/82/4
f 32/117/4 50/118/4 36/81/4 51/119/4
f 50/120/4 47/121/4 23/122/4 36/86/4
f 52/123/3 35/124/3 54/125/3 64/126/3
f 35/127/3 25/128/3 28/129/3 54/130/3
f 25/131/3 39/132/3 48/133/3 28/134/3
f 43/135/2 44/136/2 46/137/2 60/138/2
f 53/139/2 33/140/2 44/141/2 43/142/2
f 24/143/2 55/144/2 59/145/2 56/146/2
f 55/147/2 53/148/2 43/149/2 59/150/2
f 56/151/2 59/152/2 22/153/2 11/154/2
f 59/155/2 43/156/2 60/157/2 22/158/2
f 78/159/2 52/160/2 64/161/2 63/162/2
f 58/163/1 18/164/1 61/165/1 62/166/1
f 62/167/1 61/168/1 63/169/1 64/170/1
f 65/171/1 17/172/1 18/173/1 58/174/1
f 24/175/1 70/176/1 17/177/1 65/178/1
f 70/179/2 24/180/2 56/181/2 57/182/2
f 57/183/2 56/184/2 11/185/2 66/186/2
f 63/169/1 61/187/1 67/188/1
f 19/189/1 67/188/1 61/165/1 18/190/1
f 68/191/1 19/192/1 18/173/1 17/193/1
f 69/194/1 68/191/1 17/172/1 70/195/1
f 69/196/5 70/197/5 57/198/5 73/199/5
f 73/200/5 57/201/5 66/202/5 71/203/5
f 80/204/4 73/205/4 71/206/4 76/207/4
f 74/208/4 80/209/4 76/210/4 77/211/4
f 75/212/4 72/213/4 80/214/4 74/215/4
f 72/216/4 69/217/4 73/218/4 80/219/4
f 79/220/6 78/221/6 63/222/6 67/223/6
