# Blender v2.79 (sub 0) OBJ File: ''
# www.blender.org
mtllib rail.mtl
o Plane
v -0.500000 0.000000 -1.000000
v 0.500000 0.000000 -1.000000
v 0.500000 0.000000 -2.000000
v -0.500000 0.000000 -2.000000
v 0.500000 1.000000 -2.000000
v -0.500000 1.000000 -2.000000
v 0.500000 -0.000000 2.000000
v 0.500000 1.000000 2.000000
v -0.500000 1.000000 2.000000
v -0.500000 -0.000000 2.000000
v -0.500000 -0.000000 1.000000
v 0.500000 -0.000000 1.000000
v 0.500000 0.000000 0.000000
v -0.500000 0.000000 0.000000
v 1.500000 0.000000 -1.000000
v 1.500000 0.000000 -2.000000
v 1.500000 1.000000 -2.000000
v 1.500000 -0.000000 2.000000
v 1.500000 1.000000 2.000000
v 1.500000 -0.000000 1.000000
v 1.500000 0.000000 0.000000
v 2.500000 0.000000 -1.000000
v 2.500000 0.000000 -2.000000
v 2.500000 1.000000 -2.000000
v 2.500000 -0.000000 2.000000
v 2.500000 1.000000 2.000000
v 2.500000 -0.000000 1.000000
v 2.500000 0.000000 0.000000
v 3.500000 0.000000 -1.000000
v 3.500000 0.000000 -2.000000
v 3.500000 1.000000 -2.000000
v 3.500000 -0.000000 2.000000
v 3.500000 1.000000 2.000000
v 3.500000 -0.000000 1.000000
v 3.500000 0.000000 0.000000
v 4.500000 0.000000 -1.000000
v 4.500000 0.000000 -2.000000
v 4.500000 1.000000 -2.000000
v 4.500000 -0.000000 2.000000
v 4.500000 1.000000 2.000000
v 4.500000 -0.000000 1.000000
v 4.500000 0.000000 0.000000
v 5.500000 0.000000 -1.000000
v 5.500000 0.000000 -2.000000
v 5.500000 1.000000 -2.000000
v 5.500000 -0.000000 2.000000
v 5.500000 1.000000 2.000000
v 5.500000 -0.000000 1.000000
v 5.500000 0.000000 0.000000
v 6.500000 0.000000 -1.000000
v 6.500000 0.000000 -2.000000
v 6.500000 1.000000 -2.000000
v 6.500000 -0.000000 2.000000
v 6.500000 1.000000 2.000000
v 6.500000 -0.000000 1.000000
v 6.500000 0.000000 0.000000
v 7.500000 0.000000 -1.000000
v 7.500000 0.000000 -2.000000
v 7.500000 1.000000 -2.000000
v 7.500000 -0.000000 2.000000
v 7.500000 1.000000 2.000000
v 7.500000 -0.000000 1.000000
v 7.500000 0.000000 0.000000
v 8.500000 0.000000 -1.000000
v 8.500000 0.000000 -2.000000
v 8.500000 1.000000 -2.000000
v 8.500000 -0.000000 2.000000
v 8.500000 1.000000 2.000000
v 8.500000 -0.000000 1.000000
v 8.500000 0.000000 0.000000
v 9.500000 0.000000 -1.000000
v 9.500000 0.000000 -2.000000
v 9.500000 1.000000 -2.000000
v 9.500000 -0.000000 2.000000
v 9.500000 1.000000 2.000000
v 9.500000 -0.000000 1.000000
v 9.500000 0.000000 0.000000
vt 0.000000 0.500000
vt 0.500000 0.500000
vt 0.500000 1.000000
vt 0.000000 1.000000
vt 0.500000 0.500000
vt 1.000000 0.500000
vt 1.000000 1.000000
vt 0.500000 1.000000
vt 1.000000 0.500000
vt 1.000000 1.000000
vt 0.500000 1.000000
vt 0.500000 0.500000
vt 0.000000 0.250000
vt 0.500000 0.250000
vt 0.500000 0.500000
vt 0.000000 0.500000
vt 0.000000 0.000000
vt 0.500000 0.000000
vt 0.500000 0.500000
vt 0.000000 0.500000
vt 0.500000 0.750000
vt 0.000000 0.750000
vt 0.000000 0.500000
vt 0.500000 0.500000
vt 0.500000 1.000000
vt 0.000000 1.000000
vt 0.500000 0.500000
vt 1.000000 0.500000
vt 1.000000 1.000000
vt 0.500000 1.000000
vt 1.000000 0.500000
vt 1.000000 1.000000
vt 0.500000 1.000000
vt 0.500000 0.500000
vt 0.000000 0.250000
vt 0.500000 0.250000
vt 0.500000 0.500000
vt 0.000000 0.500000
vt 0.000000 0.000000
vt 0.500000 0.000000
vt 0.500000 0.500000
vt 0.000000 0.500000
vt 0.500000 0.750000
vt 0.000000 0.750000
vt 0.000000 0.500000
vt 0.500000 0.500000
vt 0.500000 1.000000
vt 0.000000 1.000000
vt 0.500000 0.500000
vt 1.000000 0.500000
vt 1.000000 1.000000
vt 0.500000 1.000000
vt 1.000000 0.500000
vt 1.000000 1.000000
vt 0.500000 1.000000
vt 0.500000 0.500000
vt 0.000000 0.250000
vt 0.500000 0.250000
vt 0.500000 0.500000
vt 0.000000 0.500000
vt 0.000000 0.000000
vt 0.500000 0.000000
vt 0.500000 0.500000
vt 0.000000 0.500000
vt 0.500000 0.750000
vt 0.000000 0.750000
vt 0.000000 0.500000
vt 0.500000 0.500000
vt 0.500000 1.000000
vt 0.000000 1.000000
vt 0.500000 0.500000
vt 1.000000 0.500000
vt 1.000000 1.000000
vt 0.500000 1.000000
vt 1.000000 0.500000
vt 1.000000 1.000000
vt 0.500000 1.000000
vt 0.500000 0.500000
vt 0.000000 0.250000
vt 0.500000 0.250000
vt 0.500000 0.500000
vt 0.000000 0.500000
vt 0.000000 0.000000
vt 0.500000 0.000000
vt 0.500000 0.500000
vt 0.000000 0.500000
vt 0.500000 0.750000
vt 0.000000 0.750000
vt 0.000000 0.500000
vt 0.500000 0.500000
vt 0.500000 1.000000
vt 0.000000 1.000000
vt 0.500000 0.500000
vt 1.000000 0.500000
vt 1.000000 1.000000
vt 0.500000 1.000000
vt 1.000000 0.500000
vt 1.000000 1.000000
vt 0.500000 1.000000
vt 0.500000 0.500000
vt 0.000000 0.250000
vt 0.500000 0.250000
vt 0.500000 0.500000
vt 0.000000 0.500000
vt 0.000000 0.000000
vt 0.500000 0.000000
vt 0.500000 0.500000
vt 0.000000 0.500000
vt 0.500000 0.750000
vt 0.000000 0.750000
vt 0.000000 0.500000
vt 0.500000 0.500000
vt 0.500000 1.000000
vt 0.000000 1.000000
vt 0.500000 0.500000
vt 1.000000 0.500000
vt 1.000000 1.000000
vt 0.500000 1.000000
vt 1.000000 0.500000
vt 1.000000 1.000000
vt 0.500000 1.000000
vt 0.500000 0.500000
vt 0.000000 0.250000
vt 0.500000 0.250000
vt 0.500000 0.500000
vt 0.000000 0.500000
vt 0.000000 0.000000
vt 0.500000 0.000000
vt 0.500000 0.500000
vt 0.000000 0.500000
vt 0.500000 0.750000
vt 0.000000 0.750000
vt 0.000000 0.500000
vt 0.500000 0.500000
vt 0.500000 1.000000
vt 0.000000 1.000000
vt 0.500000 0.500000
vt 1.000000 0.500000
vt 1.000000 1.000000
vt 0.500000 1.000000
vt 1.000000 0.500000
vt 1.000000 1.000000
vt 0.500000 1.000000
vt 0.500000 0.500000
vt 0.000000 0.250000
vt 0.500000 0.250000
vt 0.500000 0.500000
vt 0.000000 0.500000
vt 0.000000 0.000000
vt 0.500000 0.000000
vt 0.500000 0.500000
vt 0.000000 0.500000
vt 0.500000 0.750000
vt 0.000000 0.750000
vt 0.000000 0.500000
vt 0.500000 0.500000
vt 0.500000 1.000000
vt 0.000000 1.000000
vt 0.500000 0.500000
vt 1.000000 0.500000
vt 1.000000 1.000000
vt 0.500000 1.000000
vt 1.000000 0.500000
vt 1.000000 1.000000
vt 0.500000 1.000000
vt 0.500000 0.500000
vt 0.000000 0.250000
vt 0.500000 0.250000
vt 0.500000 0.500000
vt 0.000000 0.500000
vt 0.000000 0.000000
vt 0.500000 0.000000
vt 0.500000 0.500000
vt 0.000000 0.500000
vt 0.500000 0.750000
vt 0.000000 0.750000
vt 0.000000 0.500000
vt 0.500000 0.500000
vt 0.500000 1.000000
vt 0.000000 1.000000
vt 0.500000 0.500000
vt 1.000000 0.500000
vt 1.000000 1.000000
vt 0.500000 1.000000
vt 1.000000 0.500000
vt 1.000000 1.000000
vt 0.500000 1.000000
vt 0.500000 0.500000
vt 0.000000 0.250000
vt 0.500000 0.250000
vt 0.500000 0.500000
vt 0.000000 0.500000
vt 0.000000 0.000000
vt 0.500000 0.000000
vt 0.500000 0.500000
vt 0.000000 0.500000
vt 0.500000 0.750000
vt 0.000000 0.750000
vt 0.000000 0.500000
vt 0.500000 0.500000
vt 0.500000 1.000000
vt 0.000000 1.000000
vt 0.500000 0.500000
vt 1.000000 0.500000
vt 1.000000 1.000000
vt 0.500000 1.000000
vt 1.000000 0.500000
vt 1.000000 1.000000
vt 0.500000 1.000000
vt 0.500000 0.500000
vt 0.000000 0.250000
vt 0.500000 0.250000
vt 0.500000 0.500000
vt 0.000000 0.500000
vt 0.000000 0.000000
vt 0.500000 0.000000
vt 0.500000 0.500000
vt 0.000000 0.500000
vt 0.500000 0.750000
vt 0.000000 0.750000
vn 0.0000 1.0000 0.0000
vn 0.0000 0.7071 0.7071
vn 0.0000 -0.0000 1.0000
usemtl None.001
s 1
f 1/1/1 2/2/1 3/3/2 4/4/2
f 4/5/2 3/6/2 5/7/3 6/8/3
f 7/9/3 8/10/3 9/11/3 10/12/3
f 11/13/1 12/14/1 13/15/1 14/16/1
f 10/17/1 7/18/1 12/19/1 11/20/1
f 14/16/1 13/15/1 2/21/1 1/22/1
f 2/23/1 15/24/1 16/25/2 3/26/2
f 3/27/2 16/28/2 17/29/3 5/30/3
f 18/31/3 19/32/3 8/33/3 7/34/3
f 12/35/1 20/36/1 21/37/1 13/38/1
f 7/39/1 18/40/1 20/41/1 12/42/1
f 13/38/1 21/37/1 15/43/1 2/44/1
f 15/45/1 22/46/1 23/47/2 16/48/2
f 16/49/2 23/50/2 24/51/3 17/52/3
f 25/53/3 26/54/3 19/55/3 18/56/3
f 20/57/1 27/58/1 28/59/1 21/60/1
f 18/61/1 25/62/1 27/63/1 20/64/1
f 21/60/1 28/59/1 22/65/1 15/66/1
f 22/67/1 29/68/1 30/69/2 23/70/2
f 23/71/2 30/72/2 31/73/3 24/74/3
f 32/75/3 33/76/3 26/77/3 25/78/3
f 27/79/1 34/80/1 35/81/1 28/82/1
f 25/83/1 32/84/1 34/85/1 27/86/1
f 28/82/1 35/81/1 29/87/1 22/88/1
f 29/89/1 36/90/1 37/91/2 30/92/2
f 30/93/2 37/94/2 38/95/3 31/96/3
f 39/97/3 40/98/3 33/99/3 32/100/3
f 34/101/1 41/102/1 42/103/1 35/104/1
f 32/105/1 39/106/1 41/107/1 34/108/1
f 35/104/1 42/103/1 36/109/1 29/110/1
f 36/111/1 43/112/1 44/113/2 37/114/2
f 37/115/2 44/116/2 45/117/3 38/118/3
f 46/119/3 47/120/3 40/121/3 39/122/3
f 41/123/1 48/124/1 49/125/1 42/126/1
f 39/127/1 46/128/1 48/129/1 41/130/1
f 42/126/1 49/125/1 43/131/1 36/132/1
f 43/133/1 50/134/1 51/135/2 44/136/2
f 44/137/2 51/138/2 52/139/3 45/140/3
f 53/141/3 54/142/3 47/143/3 46/144/3
f 48/145/1 55/146/1 56/147/1 49/148/1
f 46/149/1 53/150/1 55/151/1 48/152/1
f 49/148/1 56/147/1 50/153/1 43/154/1
f 50/155/1 57/156/1 58/157/2 51/158/2
f 51/159/2 58/160/2 59/161/3 52/162/3
f 60/163/3 61/164/3 54/165/3 53/166/3
f 55/167/1 62/168/1 63/169/1 56/170/1
f 53/171/1 60/172/1 62/173/1 55/174/1
f 56/170/1 63/169/1 57/175/1 50/176/1
f 57/177/1 64/178/1 65/179/2 58/180/2
f 58/181/2 65/182/2 66/183/3 59/184/3
f 67/185/3 68/186/3 61/187/3 60/188/3
f 62/189/1 69/190/1 70/191/1 63/192/1
f 60/193/1 67/194/1 69/195/1 62/196/1
f 63/192/1 70/191/1 64/197/1 57/198/1
f 64/199/1 71/200/1 72/201/2 65/202/2
f 65/203/2 72/204/2 73/205/3 66/206/3
f 74/207/3 75/208/3 68/209/3 67/210/3
f 69/211/1 76/212/1 77/213/1 70/214/1
f 67/215/1 74/216/1 76/217/1 69/218/1
f 70/214/1 77/213/1 71/219/1 64/220/1
